<?xml version="1.0" encoding="UTF-8" standalone="no"?>
<!-- Created with Inkscape (http://www.inkscape.org/) -->

<svg
   xmlns:dc="http://purl.org/dc/elements/1.1/"
   xmlns:cc="http://creativecommons.org/ns#"
   xmlns:rdf="http://www.w3.org/1999/02/22-rdf-syntax-ns#"
   xmlns:svg="http://www.w3.org/2000/svg"
   xmlns="http://www.w3.org/2000/svg"
   xmlns:sodipodi="http://sodipodi.sourceforge.net/DTD/sodipodi-0.dtd"
   xmlns:inkscape="http://www.inkscape.org/namespaces/inkscape"
   width="744.09448819"
   height="1052.3622047"
   id="svg46607"
   version="1.1"
   inkscape:version="0.48.3.1 r9886"
   sodipodi:docname="pickups.svg">
  <defs
     id="defs46609">
    <filter
       inkscape:collect="always"
       id="filter3903"
       x="-0.10250639"
       width="1.2050128"
       y="-0.10581048"
       height="1.211621">
      <feGaussianBlur
         inkscape:collect="always"
         stdDeviation="1.3840727"
         id="feGaussianBlur3905" />
    </filter>
    <filter
       inkscape:collect="always"
       id="filter3907">
      <feGaussianBlur
         inkscape:collect="always"
         stdDeviation="1.2711024"
         id="feGaussianBlur3909" />
    </filter>
    <filter
       inkscape:collect="always"
       id="filter3951"
       x="-0.23518269"
       width="1.4703654"
       y="-0.24091949"
       height="1.481839">
      <feGaussianBlur
         inkscape:collect="always"
         stdDeviation="3.5889951"
         id="feGaussianBlur3953" />
    </filter>
    <filter
       inkscape:collect="always"
       id="filter3955"
       x="-0.23518269"
       width="1.4703654"
       y="-0.24091949"
       height="1.481839">
      <feGaussianBlur
         inkscape:collect="always"
         stdDeviation="3.5889951"
         id="feGaussianBlur3957" />
    </filter>
    <filter
       inkscape:collect="always"
       id="filter3975"
       x="-0.11857127"
       width="1.2371425"
       y="-0.12146358"
       height="1.2429272">
      <feGaussianBlur
         inkscape:collect="always"
         stdDeviation="1.8094517"
         id="feGaussianBlur3977" />
    </filter>
    <filter
       inkscape:collect="always"
       id="filter4034"
       x="-0.13229026"
       width="1.2645805"
       y="-0.13551721"
       height="1.2710344">
      <feGaussianBlur
         inkscape:collect="always"
         stdDeviation="2.0188097"
         id="feGaussianBlur4036" />
    </filter>
    <filter
       inkscape:collect="always"
       id="filter4049"
       x="-0.119878"
       width="1.239756"
       y="-0.12012225"
       height="1.2402445">
      <feGaussianBlur
         inkscape:collect="always"
         stdDeviation="1.7920097"
         id="feGaussianBlur4051" />
    </filter>
  </defs>
  <sodipodi:namedview
     id="base"
     pagecolor="#ffffff"
     bordercolor="#666666"
     borderopacity="1.0"
     inkscape:pageopacity="0.0"
     inkscape:pageshadow="2"
     inkscape:zoom="2"
     inkscape:cx="280.42226"
     inkscape:cy="547.65646"
     inkscape:document-units="px"
     inkscape:current-layer="layer1"
     showgrid="false"
     inkscape:window-width="1920"
     inkscape:window-height="1048"
     inkscape:window-x="0"
     inkscape:window-y="14"
     inkscape:window-maximized="1" />
  <metadata
     id="metadata46612">
    <rdf:RDF>
      <cc:Work
         rdf:about="">
        <dc:format>image/svg+xml</dc:format>
        <dc:type
           rdf:resource="http://purl.org/dc/dcmitype/StillImage" />
        <dc:title></dc:title>
      </cc:Work>
    </rdf:RDF>
  </metadata>
  <g
     inkscape:label="Layer 1"
     inkscape:groupmode="layer"
     id="layer1">
    <rect
       y="502.36218"
       x="94.5"
       height="110"
       width="190"
       id="rect4083"
       style="fill:#008080;fill-opacity:1;stroke:#dfdfdf;stroke-width:0;stroke-linecap:round;stroke-linejoin:round;stroke-miterlimit:4;stroke-opacity:1;stroke-dasharray:none;stroke-dashoffset:0"
       inkscape:export-filename="../../glow-example.png"
       inkscape:export-xdpi="197.25999"
       inkscape:export-ydpi="197.25999" />
    <rect
       style="fill:#008080;fill-opacity:1;stroke:#dfdfdf;stroke-width:0;stroke-linecap:round;stroke-linejoin:round;stroke-miterlimit:4;stroke-opacity:1;stroke-dasharray:none;stroke-dashoffset:0"
       id="rect27109"
       width="284.1615"
       height="255.27951"
       x="87.91925"
       y="212.72241" />
    <path
       style="fill:#000000;fill-opacity:0.05098039;stroke:none"
       inkscape:connector-curvature="0"
       id="path45467"
       d="m 414.14019,235.77518 q 0,3.11024 -4.05512,5.27559 -4.01576,2.16536 -9.72443,2.16536 -5.74804,0 -9.7638,-2.16536 -4.01575,-2.16535 -4.01575,-5.27559 0,-3.11025 4.01575,-5.31498 4.01576,-2.20473 9.7638,-2.20473 5.70867,0 9.72443,2.20473 4.05512,2.20473 4.05512,5.31498"
       inkscape:export-filename="../public/img/sprites/shadow-1.png"
       inkscape:export-xdpi="90.236687"
       inkscape:export-ydpi="90.236687" />
    <g
       id="g46777"
       inkscape:export-filename="../public/img/sprites/pickup-star-1.png"
       inkscape:export-xdpi="131.76393"
       inkscape:export-ydpi="131.76393">
      <path
         d="m 412.81981,193.66208 -7.15912,-2.62223 -5.61906,-7.03425 -5.70232,7.03425 -7.15912,2.62223 -1.33192,-1.99789 8.49104,-3.1217 5.70232,-7.03425 5.61906,7.03425 8.49104,3.1217 -1.33192,1.99789"
         id="path25923"
         inkscape:connector-curvature="0"
         style="fill:#fee481;stroke:none" />
      <path
         d="m 412.81981,193.66208 -3.66281,5.53583 -0.45784,8.94889 -8.65753,-2.3725 -8.7824,2.3725 -0.41623,-8.94889 -3.66281,-5.53583 7.15912,-2.62223 5.70232,-7.03425 5.61906,7.03425 7.15912,2.62223"
         id="path25925"
         inkscape:connector-curvature="0"
         style="fill:#ffcc00;stroke:none" />
    </g>
    <g
       id="g27630"
       inkscape:export-filename="../public/img/sprites/pink-walk-2.png"
       inkscape:export-xdpi="64.349998"
       inkscape:export-ydpi="64.349998"
       transform="matrix(0.5,0,0,0.5,525.05116,119.13349)">
      <path
         d="m -359.66864,317.8 c 6.9,6.067 9.8,11.55 8.7,16.45 -0.434,1.9 -1.233,3.416 -2.4,4.55 -1.467,0.866 -2.717,0.75 -3.75,-0.35 -0.6,-6.034 -3.983,-10.067 -10.149,-12.101 1.266,-4.066 3.799,-6.915 7.599,-8.549 z m -31.8,24.05 c -1.667,0.934 -3.283,1.351 -4.85,1.25 -1.768,-0.533 -2.467,-1.649 -2.101,-3.35 3.9,-4.367 4.583,-9.483 2.05,-15.35 3.867,-1.768 7.684,-1.768 11.45,0 0.067,9.2 -2.115,15.016 -6.549,17.45 z"
         id="path27071"
         inkscape:connector-curvature="0"
         style="fill:#f19cb7" />
      <path
         d="m -398.56864,289.4 c 0,-5.934 2.1,-11 6.3,-15.2 4.2,-4.2 9.267,-6.3 15.2,-6.3 5.933,0 11,2.1 15.199,6.3 4.2,4.2 6.301,9.267 6.301,15.2 v 30.4 c 0,3.634 -2.101,6.733 -6.301,9.3 -4.199,2.533 -9.267,3.801 -15.199,3.801 -5.934,0 -11,-1.268 -15.2,-3.801 -4.2,-2.566 -6.3,-5.666 -6.3,-9.3 v -30.4 z"
         id="path27073"
         inkscape:connector-curvature="0"
         style="fill:#f19cb7" />
      <path
         d="m -345.71864,300.9 c 0.667,-0.167 1.3,-0.084 1.9,0.25 0.6,0.366 1,0.866 1.199,1.5 0.167,0.633 0.084,1.266 -0.25,1.899 -4,7.333 -10.199,10.366 -18.6,9.101 l -0.3,-0.051 4.6,-8 c 3.967,2.467 7.283,1.316 9.95,-3.449 0.367,-0.633 0.867,-1.05 1.501,-1.25 z m -58.5,20.6 c -0.467,0.5 -1.05,0.75 -1.75,0.75 -0.7,0 -1.3,-0.233 -1.8,-0.7 -0.467,-0.466 -0.717,-1.05 -0.75,-1.75 -0.2,-8.366 3.649,-14.1 11.55,-17.2 l 0.3,-0.1 v 9.2 c -4.667,-0.134 -6.95,2.533 -6.85,8 0,0.7 -0.233,1.3 -0.7,1.8 z"
         id="path27081"
         inkscape:connector-curvature="0"
         style="fill:#f19cb7" />
      <path
         enable-background="new    "
         d="m -377.06864,254.8 c 7.6,0 14.116,2.7 19.55,8.101 5.366,5.366 8.05,11.85 8.05,19.449 0,7.634 -2.684,14.15 -8.05,19.551 -5.434,5.366 -11.95,8.05 -19.55,8.05 -7.601,0 -14.084,-2.684 -19.45,-8.05 -5.434,-5.4 -8.15,-11.917 -8.15,-19.551 0,-7.6 2.717,-14.083 8.15,-19.449 5.366,-5.401 11.85,-8.101 19.45,-8.101 z m 18.1,10.55 c -1.833,-1.866 -4.05,-2.8 -6.65,-2.8 -2.6,0 -4.816,0.934 -6.649,2.8 -1.867,1.834 -2.8,4.051 -2.8,6.65 0,2.599 0.933,4.816 2.8,6.65 1.833,1.833 4.05,2.75 6.649,2.75 2.601,0 4.817,-0.917 6.65,-2.75 1.833,-1.834 2.75,-4.051 2.75,-6.65 0,-2.599 -0.917,-4.816 -2.75,-6.65 z"
         id="path27083"
         inkscape:connector-curvature="0"
         style="opacity:0.2;fill:#ffffff" />
      <path
         d="m -357.51864,262.9 c -5.434,-5.4 -11.95,-8.101 -19.55,-8.101 -7.601,0 -14.084,2.7 -19.45,8.101 -5.434,5.366 -8.15,11.85 -8.15,19.449 0,7.634 2.717,14.15 8.15,19.551 5.366,5.366 11.85,8.05 19.45,8.05 7.6,0 14.116,-2.684 19.55,-8.05 5.366,-5.4 8.05,-11.917 8.05,-19.551 0,-7.599 -2.684,-14.082 -8.05,-19.449 z m -52.15,19.45 c 0,-9 3.2,-16.666 9.601,-23 6.333,-6.366 14,-9.55 23,-9.55 9,0 16.699,3.184 23.1,9.55 6.333,6.334 9.5,14 9.5,23 0,9.033 -3.167,16.734 -9.5,23.101 -6.4,6.333 -14.1,9.5 -23.1,9.5 -9,0 -16.667,-3.167 -23,-9.5 -6.401,-6.367 -9.601,-14.068 -9.601,-23.101 z"
         id="path27085"
         inkscape:connector-curvature="0"
         style="fill:#ffffff" />
      <path
         enable-background="new    "
         d="m -365.61864,262.55 c 2.601,0 4.817,0.934 6.65,2.8 1.833,1.834 2.75,4.051 2.75,6.65 0,2.599 -0.917,4.816 -2.75,6.65 -1.833,1.833 -4.05,2.75 -6.65,2.75 -2.6,0 -4.816,-0.917 -6.649,-2.75 -1.867,-1.834 -2.8,-4.051 -2.8,-6.65 0,-2.599 0.933,-4.816 2.8,-6.65 1.832,-1.867 4.049,-2.8 6.649,-2.8 z"
         id="path27087"
         inkscape:connector-curvature="0"
         style="opacity:0.30199998;fill:#ffffff" />
      <path
         enable-background="new    "
         d="m -384.06864,325.85 c -0.801,-0.199 -1.4,-0.649 -1.801,-1.35 -0.399,-0.7 -0.483,-1.434 -0.25,-2.2 0.167,-0.767 0.601,-1.35 1.301,-1.75 0.699,-0.399 1.449,-0.5 2.25,-0.3 0.732,0.2 1.3,0.65 1.699,1.35 0.4,0.7 0.517,1.434 0.351,2.2 -0.233,0.767 -0.7,1.351 -1.4,1.75 -0.7,0.4 -1.417,0.5 -2.15,0.3 z m 18.15,-3.9 c 0.566,0.966 0.7,1.983 0.4,3.05 -0.267,1.033 -0.867,1.834 -1.8,2.4 -0.967,0.533 -1.983,0.666 -3.051,0.399 -1.033,-0.3 -1.833,-0.933 -2.399,-1.899 -0.533,-0.934 -0.667,-1.917 -0.4,-2.95 0.3,-1.067 0.934,-1.866 1.9,-2.4 0.933,-0.566 1.916,-0.7 2.95,-0.399 1.067,0.265 1.867,0.866 2.4,1.799 z m -12.65,3.7 1.6,-0.2 c 0.533,0.134 0.934,0.45 1.2,0.95 0.3,0.5 0.383,1.016 0.25,1.55 -0.167,0.566 -0.5,0.983 -1,1.25 l -1.55,0.2 c -0.534,-0.134 -0.95,-0.45 -1.25,-0.95 -0.268,-0.5 -0.334,-1.017 -0.2,-1.55 0.166,-0.533 0.484,-0.95 0.95,-1.25 z"
         id="path27089"
         inkscape:connector-curvature="0"
         style="opacity:0.50199998;fill:#f3afc5" />
    </g>
    <path
       style="fill:#000000;fill-opacity:0.05098039;stroke:none"
       inkscape:connector-curvature="0"
       id="path45467-5"
       d="m 351.14173,305.50385 q 0,3.11024 -4.05512,5.27559 -4.01576,2.16536 -9.72443,2.16536 -5.74804,0 -9.7638,-2.16536 -4.01575,-2.16535 -4.01575,-5.27559 0,-3.11025 4.01575,-5.31498 4.01576,-2.20473 9.7638,-2.20473 5.70867,0 9.72443,2.20473 4.05512,2.20473 4.05512,5.31498"
       inkscape:export-filename="../public/img/sprites/shadow-1.png"
       inkscape:export-xdpi="90.236687"
       inkscape:export-ydpi="90.236687" />
    <path
       style="fill:#bf8851;stroke:none"
       inkscape:connector-curvature="0"
       id="path25737"
       d="m 496.82146,106.89976 q -0.35,6.6 -5.15,11.4 -5.1,5.1 -12.35,5.1 -7.3,0 -12.4,-5.1 -4.4,-4.45 -5,-10.4 l -0.05,-1 0.05,-0.95 q 0.6,-6.000004 5,-10.400004 5.1,-5.15 12.4,-5.15 7.25,0 12.35,5.15 4.8,4.750004 5.15,11.350004 m -19.6,-4.95 q 0,-0.85 0.6,-1.5 0.65,-0.600004 1.5,-0.600004 l 0.05,0 q 0.85,0 1.45,0.600004 0.65,0.65 0.65,1.5 l 0,7.9 q 0,0.85 -0.65,1.45 -0.6,0.65 -1.45,0.65 l -0.05,0 q -0.85,0 -1.5,-0.65 -0.6,-0.6 -0.6,-1.45 l 0,-7.9 m -8.35,4.75 q 0.2,3.85 3,6.65 3.05,3.05 7.45,3.05 4.35,0 7.4,-3.05 2.7,-2.7 3.1,-6.35 l 0,-0.5 0,-0.6 q 0,-4.35 -3.1,-7.400004 -3.05,-3.1 -7.4,-3.1 -4.4,0 -7.45,3.1 -3.05,3.050004 -3.05,7.400004 l 0.05,0.6 0,0.2" />
    <path
       style="fill:#cca277;stroke:none"
       inkscape:connector-curvature="0"
       id="path25739"
       d="m 461.87146,106.89976 -0.05,-1 0.1,-2 q 0.6,-5.950004 5,-10.350004 5.1,-5.15 12.4,-5.15 7.25,0 12.35,5.15 5.15,5.1 5.15,12.350004 l 0,1 q -0.35,-6.6 -5.15,-11.350004 -5.1,-5.15 -12.35,-5.15 -7.3,0 -12.4,5.15 -4.4,4.4 -5,10.400004 l -0.05,0.95" />
    <path
       style="fill:#ae7640;stroke:none"
       inkscape:connector-curvature="0"
       id="path25741"
       d="m 477.22146,101.94976 0,7.9 q 0,0.85 0.6,1.45 0.65,0.65 1.5,0.65 l 0.05,0 q 0.85,0 1.45,-0.65 0.65,-0.6 0.65,-1.45 l 0,-7.9 q 0,-0.85 -0.65,-1.5 -0.6,-0.600004 -1.45,-0.600004 l -0.05,0 q -0.85,0 -1.5,0.600004 -0.6,0.65 -0.6,1.5 m 12.6,5.05 q -0.4,3.65 -3.1,6.35 -3.05,3.05 -7.4,3.05 -4.4,0 -7.45,-3.05 -2.8,-2.8 -3,-6.65 0.4,-3.6 3,-6.2 3.05,-3.100004 7.45,-3.100004 4.35,0 7.4,3.100004 2.75,2.75 3.1,6.5" />
    <path
       style="fill:#9c6938;stroke:none"
       inkscape:connector-curvature="0"
       id="path25743"
       d="m 489.82146,106.99976 q -0.35,-3.75 -3.1,-6.5 -3.05,-3.100004 -7.4,-3.100004 -4.4,0 -7.45,3.100004 -2.6,2.6 -3,6.2 l 0,-0.2 -0.05,-0.6 q 0,-4.35 3.05,-7.400004 3.05,-3.1 7.45,-3.1 4.35,0 7.4,3.1 3.1,3.050004 3.1,7.400004 l 0,0.6 0,0.5" />
    <path
       style="fill:#acc0c1;stroke:none"
       inkscape:connector-curvature="0"
       id="path25745"
       d="m 576.82146,106.89976 q -0.35,6.6 -5.15,11.4 -5.1,5.1 -12.35,5.1 -7.3,0 -12.4,-5.1 -4.4,-4.45 -5,-10.4 l -0.05,-1 0.05,-0.95 q 0.6,-6.000004 5,-10.400004 5.1,-5.15 12.4,-5.15 7.25,0 12.35,5.15 4.8,4.750004 5.15,11.350004 m -19.6,-4.95 q 0,-0.85 0.6,-1.5 0.65,-0.600004 1.5,-0.600004 l 0.05,0 q 0.85,0 1.45,0.600004 0.65,0.65 0.65,1.5 l 0,7.9 q 0,0.85 -0.65,1.45 -0.6,0.65 -1.45,0.65 l -0.05,0 q -0.85,0 -1.5,-0.65 -0.6,-0.6 -0.6,-1.45 l 0,-7.9 m 12.6,5.05 0,-0.5 0,-0.6 q 0,-4.35 -3.1,-7.400004 -3.05,-3.1 -7.4,-3.1 -4.4,0 -7.45,3.1 -3.05,3.050004 -3.05,7.400004 l 0.05,0.6 0,0.2 q 0.2,3.85 3,6.65 3.05,3.05 7.45,3.05 4.35,0 7.4,-3.05 2.7,-2.7 3.1,-6.35" />
    <path
       style="fill:#bbcbcc;stroke:none"
       inkscape:connector-curvature="0"
       id="path25747"
       d="m 541.87146,106.89976 -0.05,-1 0.1,-2 q 0.6,-5.950004 5,-10.350004 5.1,-5.15 12.4,-5.15 7.25,0 12.35,5.15 5.15,5.1 5.15,12.350004 l 0,1 q -0.35,-6.6 -5.15,-11.350004 -5.1,-5.15 -12.35,-5.15 -7.3,0 -12.4,5.15 -4.4,4.4 -5,10.400004 l -0.05,0.95" />
    <path
       style="fill:#95aead;stroke:none"
       inkscape:connector-curvature="0"
       id="path25749"
       d="m 557.22146,101.94976 0,7.9 q 0,0.85 0.6,1.45 0.65,0.65 1.5,0.65 l 0.05,0 q 0.85,0 1.45,-0.65 0.65,-0.6 0.65,-1.45 l 0,-7.9 q 0,-0.85 -0.65,-1.5 -0.6,-0.600004 -1.45,-0.600004 l -0.05,0 q -0.85,0 -1.5,0.600004 -0.6,0.65 -0.6,1.5 m -8.3,4.55 q 0.4,-3.45 2.95,-6 3.05,-3.100004 7.45,-3.100004 4.35,0 7.4,3.100004 2.75,2.75 3.1,6.5 -0.4,3.65 -3.1,6.35 -3.05,3.05 -7.4,3.05 -4.4,0 -7.45,-3.05 -2.8,-2.8 -3,-6.65 l 0.05,-0.2" />
    <path
       style="fill:#caa202;stroke:none"
       inkscape:connector-curvature="0"
       id="path25751"
       d="m 548.92146,106.49976 -0.05,0.2 0,-0.2 0.05,0" />
    <path
       style="fill:#829f9f;stroke:none"
       inkscape:connector-curvature="0"
       id="path25753"
       d="m 548.92146,106.49976 -0.05,0 -0.05,-0.6 q 0,-4.35 3.05,-7.400004 3.05,-3.1 7.45,-3.1 4.35,0 7.4,3.1 3.1,3.050004 3.1,7.400004 l 0,0.6 0,0.5 q -0.35,-3.75 -3.1,-6.5 -3.05,-3.100004 -7.4,-3.100004 -4.4,0 -7.45,3.100004 -2.55,2.55 -2.95,6" />
    <g
       id="g61214"
       inkscape:export-filename="../public/img/sprites/pickup-coin-1.png"
       inkscape:export-xdpi="131.76393"
       inkscape:export-ydpi="131.76393">
      <path
         d="m 656.82146,106.89976 q -0.35,6.6 -5.15,11.4 -5.1,5.1 -12.35,5.1 -7.3,0 -12.4,-5.1 -4.4,-4.45 -5,-10.4 l -0.05,-1 0.05,-0.95 q 0.6,-6.000004 5,-10.400004 5.1,-5.15 12.4,-5.15 7.25,0 12.35,5.15 4.8,4.750004 5.15,11.350004 m -17.45,-7.050004 q 0.85,0 1.45,0.600004 0.65,0.65 0.65,1.5 l 0,7.9 q 0,0.85 -0.65,1.45 -0.6,0.65 -1.45,0.65 l -0.05,0 q -0.85,0 -1.5,-0.65 -0.6,-0.6 -0.6,-1.45 l 0,-7.9 q 0,-0.85 0.6,-1.5 0.65,-0.600004 1.5,-0.600004 l 0.05,0 m 10.45,7.150004 0,-0.5 0,-0.6 q 0,-4.35 -3.1,-7.400004 -3.05,-3.1 -7.4,-3.1 -4.4,0 -7.45,3.1 -3.05,3.050004 -3.05,7.400004 l 0.05,0.6 0,0.2 q 0.2,3.85 3,6.65 3.05,3.05 7.45,3.05 4.35,0 7.4,-3.05 2.7,-2.7 3.1,-6.35"
         id="path25755"
         inkscape:connector-curvature="0"
         style="fill:#ffcc00;stroke:none" />
      <path
         d="m 621.87146,106.89976 -0.05,-1 0.1,-2 q 0.6,-5.950004 5,-10.350004 5.1,-5.15 12.4,-5.15 7.25,0 12.35,5.15 5.15,5.1 5.15,12.350004 l 0,1 q -0.35,-6.6 -5.15,-11.350004 -5.1,-5.15 -12.35,-5.15 -7.3,0 -12.4,5.15 -4.4,4.4 -5,10.400004 l -0.05,0.95"
         id="path25757"
         inkscape:connector-curvature="0"
         style="fill:#fee481;stroke:none" />
      <path
         d="m 639.37146,99.849756 -0.05,0 q -0.85,0 -1.5,0.600004 -0.6,0.65 -0.6,1.5 l 0,7.9 q 0,0.85 0.6,1.45 0.65,0.65 1.5,0.65 l 0.05,0 q 0.85,0 1.45,-0.65 0.65,-0.6 0.65,-1.45 l 0,-7.9 q 0,-0.85 -0.65,-1.5 -0.6,-0.600004 -1.45,-0.600004 m -10.5,6.850004 q 0.4,-3.6 3,-6.2 3.05,-3.100004 7.45,-3.100004 4.35,0 7.4,3.100004 2.75,2.75 3.1,6.5 -0.4,3.65 -3.1,6.35 -3.05,3.05 -7.4,3.05 -4.4,0 -7.45,-3.05 -2.8,-2.8 -3,-6.65"
         id="path25759"
         inkscape:connector-curvature="0"
         style="fill:#e3b602;stroke:none" />
      <path
         d="m 628.87146,106.69976 0,-0.2 -0.05,-0.6 q 0,-4.35 3.05,-7.400004 3.05,-3.1 7.45,-3.1 4.35,0 7.4,3.1 3.1,3.050004 3.1,7.400004 l 0,0.6 0,0.5 q -0.35,-3.75 -3.1,-6.5 -3.05,-3.100004 -7.4,-3.100004 -4.4,0 -7.45,3.100004 -2.6,2.6 -3,6.2"
         id="path25761"
         inkscape:connector-curvature="0"
         style="fill:#caa202;stroke:none" />
    </g>
    <path
       style="fill:#a33434;stroke:none"
       inkscape:connector-curvature="0"
       id="path24873"
       d="m 416.25797,84.831986 -1.5,-0.15 -1,-0.05 q -5.4,0 -9.15,3.8 l -0.85,0.9 -0.8,-0.9 q -3.8,-3.8 -9.2,-3.8 -5.4,0 -9.2,3.75 l -0.05,0.05 q -3.75,3.85 -3.75,9.15 0,3.200004 1.4,5.900004 l 0,-0.05 q 0.5,1.15 1.95,3.15 l 0.35,0.45 0.75,0.75 0.1,0.1 16.45,15 q 0.85,0.75 2,0.75 1.15,0 2.05,-0.75 l 16.45,-15 0.1,-0.1 0.75,-0.75 0.35,-0.45 1.9,-3.05 0.05,-0.05 q 1.35,-2.7 1.35,-5.900004 0,-5.3 -3.75,-9.15 l -0.05,-0.05 q -2.9,-2.85 -6.7,-3.55 m -1.5,-3.15 1.5,0.15 q 5,0.7 8.8,4.4 l 0.1,0.1 q 4.6,4.7 4.6,11.25 0,3.950004 -1.7,7.250004 l -0.05,0.15 -0.05,0.05 -2,3.2 -0.05,0.05 -0.7,0.85 -0.75,0.75 -0.1,0.1 -0.1,0.1 -16.45,15 q -1.75,1.55 -4.05,1.55 -2.3,0 -4,-1.55 l -0.05,0 -16.45,-15 -0.1,-0.1 -0.1,-0.1 -0.75,-0.75 -0.05,-0.05 -0.6,-0.75 -0.05,-0.05 -1.95,-3.15 -0.2,-0.3 q -1.7,-3.3 -1.7,-7.250004 0,-6.55 4.6,-11.25 l 0.1,-0.1 q 4.7,-4.6 11.3,-4.6 5.75,0 10,3.5 4.25,-3.5 10,-3.5 l 1,0.05" />
    <path
       style="fill:#f34e4e;stroke:none"
       inkscape:connector-curvature="0"
       id="path24875"
       d="m 416.25797,84.831986 q 3.8,0.7 6.7,3.55 l 0.05,0.05 q 3.75,3.85 3.75,9.15 0,3.200004 -1.35,5.900004 l -0.05,0.05 -1.9,3.05 -0.35,0.45 -0.75,0.75 -0.1,0.1 -16.45,15 q -0.9,0.75 -2.05,0.75 -1.15,0 -2,-0.75 l -16.45,-15 -0.1,-0.1 -0.75,-0.75 -0.35,-0.45 q -1.45,-2 -1.95,-3.15 l 0,0.05 q -1.4,-2.7 -1.4,-5.900004 0,-5.3 3.75,-9.15 l 0.05,-0.05 q 3.8,-3.75 9.2,-3.75 5.4,0 9.2,3.8 l 0.8,0.9 0.85,-0.9 q 3.75,-3.8 9.15,-3.8 l 1,0.05 1.5,0.15 m -1.5,2.85 -1,-0.05 q -4.15,0 -7.05,2.9 -2.9,2.9 -2.95,6.95 -0.05,-4.05 -2.95,-6.95 -2.9,-2.9 -7.05,-2.9 -4.15,0 -7.1,2.9 -2.9,2.95 -2.9,7.05 0,2.450004 1.05,4.500004 l 1.75,2.8 0.75,0.75 16.45,15 16.45,-15 0.75,-0.75 1.75,-2.8 q 1.05,-2.05 1.05,-4.500004 0,-4.1 -2.9,-7.05 -2,-2 -4.6,-2.6 l -1.5,-0.25" />
    <path
       style="fill:#d91d1d;stroke:none"
       inkscape:connector-curvature="0"
       id="path24877"
       d="m 414.75797,87.681986 1.5,0.25 q 2.6,0.6 4.6,2.6 2.9,2.95 2.9,7.05 0,2.450004 -1.05,4.500004 l -1.75,2.8 -0.75,0.75 -16.45,15 -16.45,-15 -0.75,-0.75 -1.75,-2.8 q -1.05,-2.05 -1.05,-4.500004 0,-4.1 2.9,-7.05 2.95,-2.9 7.1,-2.9 4.15,0 7.05,2.9 2.9,2.9 2.95,6.95 0.05,-4.05 2.95,-6.95 2.9,-2.9 7.05,-2.9 l 1,0.05" />
    <g
       id="g29252"
       transform="matrix(1.1993626,0,0,1.1993626,-630.40639,-538.5624)"
       inkscape:export-filename="../public/img/sprites/pickup-mushroom-1.png"
       inkscape:export-xdpi="130.87729"
       inkscape:export-ydpi="130.87729">
      <path
         d="m 911.49949,602.36829 q -2.07987,-3.04575 -1.66699,-4.39558 l 0.24432,-0.44756 0.0321,-0.0383 q 1.41859,-1.61635 3.29007,-2.52744 l 0.37712,0.25056 0.35126,0.35933 q 0.97711,1.01378 1.09562,2.35204 0.14968,1.69045 -0.94169,2.99387 -1.09137,1.30343 -2.74971,1.41478 l -0.0321,0.0383 m 25.4828,20.42399 -3.39594,-1.47398 -2.01401,-1.09943 -0.12656,-0.62768 q -0.14345,-1.62001 0.88372,-2.84676 1.02717,-1.22675 2.64717,-1.3702 1.62001,-0.14345 2.84676,0.88372 1.22675,1.02717 1.3702,2.64718 0.14345,1.62001 -0.88372,2.84676 -0.57778,0.69005 -1.32762,1.04039 m -2.02018,-17.60344 q 0.76672,0.64198 0.85404,1.62807 0.0936,1.05652 -0.54843,1.82324 -0.64198,0.76672 -1.66641,0.82194 -1.01819,0.12566 -1.78491,-0.51633 -0.76672,-0.64198 -0.86027,-1.6985 -0.0873,-0.98609 0.55466,-1.75282 0.64198,-0.76672 1.66018,-0.89237 1.02442,-0.0552 1.79114,0.58677 m -16.10344,-4.28855 q 1.02717,-1.22675 2.64718,-1.3702 1.62,-0.14345 2.84676,0.88372 1.22675,1.02717 1.3702,2.64718 0.14345,1.62001 -0.88372,2.84676 -1.02717,1.22675 -2.64718,1.3702 -1.62001,0.14345 -2.84676,-0.88372 -1.22675,-1.02717 -1.3702,-2.64718 -0.14345,-1.62001 0.88372,-2.84676"
         id="path24951"
         inkscape:connector-curvature="0"
         style="fill:#fca66c;stroke:none" />
      <path
         d="m 927.64966,616.4144 -8.31281,9.92801 -9.35399,-7.83218 8.31281,-9.928 4.49918,4.12844 4.85481,3.70373"
         id="path24959"
         inkscape:connector-curvature="0"
         style="fill:#efebdc;stroke:none" />
      <path
         sodipodi:nodetypes="ccccccc"
         d="m 929.39158,610.45179 -1.00705,5.56235 -6.0814,-0.65046 -8.51195,-1.52298 3.59557,-5.56235 5.92343,1.52297 6.0814,0.65047"
         id="path24957"
         inkscape:connector-curvature="0"
         style="fill:#e1d7bf;stroke:none" />
      <path
         d="m 918.85867,600.90029 q -1.02717,1.22675 -0.88372,2.84676 0.14345,1.62001 1.3702,2.64718 1.22675,1.02717 2.84676,0.88372 1.62001,-0.14345 2.64718,-1.3702 1.02717,-1.22675 0.88372,-2.84676 -0.14345,-1.62001 -1.3702,-2.64718 -1.22676,-1.02717 -2.84676,-0.88372 -1.62001,0.14345 -2.64718,1.3702 m 20.72257,21.9813 q -0.81404,0.42702 -2.59895,-0.0893 0.74984,-0.35034 1.32762,-1.04039 1.02717,-1.22675 0.88372,-2.84676 -0.14345,-1.62001 -1.3702,-2.64718 -1.22675,-1.02717 -2.84676,-0.88372 -1.62,0.14345 -2.64717,1.3702 -1.02717,1.22675 -0.88372,2.84676 l 0.12656,0.62768 -4.59591,-3.00043 -4.80539,-3.76274 -4.5486,-4.06943 -5.19756,-5.78665 -0.92539,-1.23133 0.0321,-0.0383 q 1.65834,-0.11135 2.74971,-1.41478 1.09137,-1.30342 0.94169,-2.99387 -0.11851,-1.33826 -1.09562,-2.35204 2.42157,-0.71134 5.4556,-0.51858 7.04077,0.54784 13.21286,5.71579 6.21044,5.20005 7.94862,12.0029 1.48413,5.938 -1.16321,10.11221 m -4.61913,-17.69275 q -0.76672,-0.64199 -1.79114,-0.58677 -1.0182,0.12565 -1.66018,0.89237 -0.64198,0.76673 -0.55466,1.75282 0.0935,1.05652 0.86027,1.6985 0.76672,0.64199 1.78491,0.51633 1.02443,-0.0552 1.66641,-0.82194 0.64198,-0.76672 0.54843,-1.82324 -0.0873,-0.98609 -0.85404,-1.62807"
         id="path24953"
         inkscape:connector-curvature="0"
         style="fill:#e86a17;stroke:none" />
      <path
         d="m 913.39899,594.95938 q 3.05731,-1.54849 7.30745,-1.25045 7.04077,0.54784 13.21286,5.71579 6.21044,5.20005 7.94862,12.0029 1.65527,6.66821 -1.85692,11.09647 l -0.0321,0.0383 -0.39766,0.31916 q 2.64734,-4.17421 1.16321,-10.11221 -1.73818,-6.80285 -7.94862,-12.0029 -6.17209,-5.16795 -13.21286,-5.71579 -3.03403,-0.19276 -5.4556,0.51858 l -0.35126,-0.35933 -0.37712,-0.25056"
         id="path24955"
         inkscape:connector-curvature="0"
         style="fill:#ef975c;stroke:none" />
    </g>
    <path
       inkscape:export-ydpi="90.236687"
       inkscape:export-xdpi="90.236687"
       inkscape:export-filename="../public/img/sprites/shadow-1.png"
       d="m 493.6897,235.77518 q 0,3.11024 -4.05512,5.27559 -4.01576,2.16536 -9.72443,2.16536 -5.74804,0 -9.7638,-2.16536 -4.01575,-2.16535 -4.01575,-5.27559 0,-3.11025 4.01575,-5.31498 4.01576,-2.20473 9.7638,-2.20473 5.70867,0 9.72443,2.20473 4.05512,2.20473 4.05512,5.31498"
       id="path46953"
       inkscape:connector-curvature="0"
       style="fill:#000000;fill-opacity:0.05098039;stroke:none" />
    <g
       transform="matrix(1.3935999,0,0,1.3935999,1117.8169,-82.521308)"
       id="g46289"
       inkscape:export-filename="../public/img/sprites/pickup-baby-1.png"
       inkscape:export-xdpi="133.00551"
       inkscape:export-ydpi="133.00551">
      <path
         d="m -406.50178,187.51079 0.24048,0.0127 v 0.038 c 1.18971,0.15188 2.22325,0.66649 3.10086,1.5441 1.06315,1.06315 1.59472,2.34577 1.59472,3.8476 v 10.22651 c 0,0.91988 -0.53157,1.70433 -1.59472,2.35412 -0.87761,0.53183 -1.91115,0.84394 -3.10086,0.93659 v 0.0256 h -0.0506 -0.18985 -0.16428 -0.10125 v -0.0256 c -1.17276,-0.101 -2.1982,-0.41362 -3.0753,-0.93659 -1.06315,-0.64954 -1.59498,-1.43424 -1.59498,-2.35412 v -10.22651 c 0,-1.50183 0.53183,-2.78445 1.59498,-3.8476 0.87736,-0.86926 1.90279,-1.37957 3.0753,-1.53145 v -0.0506 l 0.26553,-0.0127 z"
         id="path45553"
         inkscape:connector-curvature="0"
         style="fill:#8db5e7" />
      <path
         d="m -414.82955,203.73652 c -0.12657,-0.12657 -0.18985,-0.27845 -0.18985,-0.45564 0,-0.16049 0.059,-0.30806 0.17719,-0.44298 1.45981,-1.5274 3.1725,-1.86457 5.13857,-1.01253 l 0.0759,0.0377 -1.64535,1.64535 c -0.81002,-0.86039 -1.69598,-0.78875 -2.65788,0.21542 -0.12657,0.12656 -0.27415,0.18985 -0.44298,0.18985 -0.1772,0.008 -0.32907,-0.0506 -0.45564,-0.17719 z m 16.09916,-0.45564 c -0.008,0.16884 -0.0759,0.31641 -0.20251,0.44298 -0.12656,0.12656 -0.27844,0.18554 -0.45563,0.17719 -0.16884,0 -0.31642,-0.0633 -0.44298,-0.18985 -0.95355,-0.99582 -1.83521,-1.06315 -2.64523,-0.20276 l -1.64535,-1.64535 c 0.0167,-0.0253 0.038,-0.042 0.0633,-0.0504 1.96607,-0.8523 3.67876,-0.51462 5.13857,1.01252 0.11796,0.13517 0.18124,0.2868 0.18985,0.45564 z"
         id="path45555"
         inkscape:connector-curvature="0"
         style="fill:#8db5e7" />
      <path
         d="m -402.33751,203.30619 c 1.7466,1.53575 2.48068,2.92367 2.20224,4.16401 -0.10986,0.48095 -0.31211,0.8647 -0.60752,1.15175 -0.37134,0.21921 -0.68775,0.18985 -0.94924,-0.0886 -0.15188,-1.5274 -1.00822,-2.54828 -2.56903,-3.06315 0.32046,-1.02923 0.96165,-1.7504 1.92355,-2.16402 z m -7.61926,2.16428 c 0.32072,-1.02924 0.9619,-1.75066 1.9238,-2.16428 1.74661,1.53575 2.48069,2.92367 2.20224,4.16401 -0.10986,0.48095 -0.31211,0.8647 -0.60751,1.15175 -0.37135,0.21921 -0.68776,0.18985 -0.94925,-0.0886 -0.15188,-1.5274 -1.00847,-2.54828 -2.56928,-3.06289 z"
         id="path45557"
         inkscape:connector-curvature="0"
         style="fill:#8db5e7" />
      <path
         enable-background="new    "
         d="m -405.2865,189.39662 c 0.46399,-0.4726 1.02519,-0.70877 1.68308,-0.70877 0.65839,0 1.21908,0.23643 1.68332,0.70877 0.46399,0.46399 0.69611,1.02518 0.69611,1.68332 0,0.65815 -0.23212,1.21908 -0.69611,1.68333 -0.46424,0.46399 -1.02544,0.69611 -1.68332,0.69611 -0.65789,0 -1.21909,-0.23212 -1.68308,-0.69611 -0.47259,-0.46399 -0.70902,-1.02518 -0.70902,-1.68333 0,-0.65814 0.23643,-1.21908 0.70902,-1.68332 z"
         id="path45561"
         inkscape:connector-curvature="0"
         style="opacity:0.30199998;fill:#ffffff" />
      <path
         enable-background="new    "
         d="m -403.60317,188.68785 c -0.65814,0 -1.21908,0.23643 -1.68307,0.70877 -0.4726,0.46399 -0.70902,1.02518 -0.70902,1.68332 0,0.65815 0.23642,1.21908 0.70902,1.68333 0.46399,0.46399 1.02518,0.69611 1.68307,0.69611 0.65839,0 1.21908,-0.23212 1.68332,-0.69611 0.46399,-0.46399 0.69611,-1.02518 0.69611,-1.68333 0,-0.65814 -0.23212,-1.21908 -0.69611,-1.68332 -0.46424,-0.4726 -1.02543,-0.70877 -1.68332,-0.70877 z m -2.89861,-1.96177 c 1.92405,0 3.57346,0.68346 4.94897,2.05037 1.35831,1.35855 2.03771,2.99961 2.03771,4.9234 0,1.93216 -0.6794,3.58181 -2.03771,4.94872 -1.37551,1.35831 -3.02492,2.03771 -4.94897,2.03771 -1.9238,0 -3.56485,-0.6794 -4.92315,-2.03771 -1.37552,-1.36691 -2.06302,-3.01656 -2.06302,-4.94872 0,-1.92379 0.68775,-3.56485 2.06302,-4.9234 1.3583,-1.36691 2.9996,-2.05037 4.92315,-2.05037 z"
         id="path45563"
         inkscape:connector-curvature="0"
         style="opacity:0.2;fill:#ffffff" />
      <path
         d="m -401.55281,188.77645 c -1.37551,-1.36691 -3.02492,-2.05037 -4.94897,-2.05037 -1.9238,0 -3.56485,0.68346 -4.92315,2.05037 -1.37552,1.35855 -2.06302,2.99961 -2.06302,4.9234 0,1.93216 0.68775,3.58181 2.06302,4.94872 1.3583,1.35831 2.9996,2.03771 4.92315,2.03771 1.92405,0 3.57346,-0.6794 4.94897,-2.03771 1.35831,-1.36691 2.03771,-3.01656 2.03771,-4.94872 0,-1.92379 -0.6794,-3.56485 -2.03771,-4.9234 z m -13.2008,4.9234 c 0,-2.27818 0.81002,-4.21894 2.43006,-5.82202 1.60334,-1.61169 3.54384,-2.4174 5.82202,-2.4174 2.27819,0 4.2273,0.80597 5.84759,2.4174 1.60308,1.60308 2.40475,3.54384 2.40475,5.82202 0,2.28654 -0.80167,4.23565 -2.40475,5.84734 -1.62004,1.60308 -3.5694,2.40475 -5.84759,2.40475 -2.27818,0 -4.21868,-0.80167 -5.82202,-2.40475 -1.62004,-1.61169 -2.43006,-3.5608 -2.43006,-5.84734 z"
         id="path45565"
         inkscape:connector-curvature="0"
         style="fill:#ffffff" />
      <path
         enable-background="new    "
         d="m -410.08334,201.80006 c 0.20251,0 0.3754,0.0716 0.51892,0.21541 0.14328,0.14328 0.21516,0.31642 0.21516,0.51892 0,0.20251 -0.0716,0.3754 -0.21516,0.51892 -0.14327,0.14353 -0.31641,0.21542 -0.51892,0.21542 -0.2025,0 -0.37539,-0.0716 -0.51892,-0.21542 -0.14352,-0.14327 -0.21541,-0.31641 -0.21541,-0.51892 0,-0.2025 0.0716,-0.37539 0.21541,-0.51892 0.14353,-0.14377 0.31642,-0.21541 0.51892,-0.21541 z m 0.72143,2.94898 c -0.14327,0 -0.26579,-0.0506 -0.36704,-0.15188 -0.101,-0.10125 -0.15188,-0.22377 -0.15188,-0.36704 0,-0.14352 0.0506,-0.26579 0.15188,-0.36704 0.10125,-0.10125 0.22377,-0.15188 0.36704,-0.15188 0.14327,0 0.26579,0.0504 0.36704,0.15188 0.10125,0.10151 0.15188,0.22352 0.15188,0.36704 0,0.14327 -0.0504,0.26579 -0.15188,0.36704 -0.10151,0.10126 -0.22377,0.15188 -0.36704,0.15188 z m 3.23983,-0.24047 c 0,0.27869 -0.0969,0.51487 -0.29085,0.70876 -0.19415,0.19441 -0.43032,0.29111 -0.70877,0.29111 -0.2787,0 -0.51487,-0.097 -0.70902,-0.29111 -0.19415,-0.19389 -0.29085,-0.43007 -0.29085,-0.70876 0,-0.27845 0.0969,-0.51462 0.29085,-0.70877 0.1939,-0.19415 0.43032,-0.2911 0.70902,-0.2911 0.27845,0 0.51462,0.0972 0.70877,0.2911 0.19415,0.1939 0.29085,0.43032 0.29085,0.70877 z"
         id="path45567"
         inkscape:connector-curvature="0"
         style="opacity:0.50199998;fill:#a3c3eb" />
      <path
         sodipodi:nodetypes="cccccccccccsc"
         style="fill:#ffffff"
         inkscape:connector-curvature="0"
         id="path45569"
         d="m -401.56572,203.17963 c 0,0.91988 -0.53157,1.70433 -1.59472,2.35412 -0.87761,0.53183 -1.91115,0.84394 -3.10086,0.93659 l 0,0.0256 -0.0506,0 -0.18985,0 -0.16428,0 -0.10125,0 0,-0.0256 c -1.17276,-0.101 -2.1982,-0.41362 -3.0753,-0.93659 -1.06315,-0.64954 -1.59498,-1.43424 -1.59498,-2.35412 1.65123,-0.0968 1.9862,0.10696 4.20542,0.74764 2.21922,0.64069 4.62229,-0.16111 5.66645,-0.74764 z" />
      <path
         sodipodi:nodetypes="cccsccccccczcccccc"
         style="fill:#728db1;fill-opacity:1;stroke:#728db1;stroke-width:0.14351322;stroke-miterlimit:4;stroke-opacity:1;stroke-dasharray:none"
         inkscape:connector-curvature="0"
         id="path45573"
         d="m -404.53971,194.91495 -0.0562,-0.0618 c -0.0301,-0.0675 -0.0787,-0.12941 -0.14628,-0.18566 -0.12006,-0.0901 -0.26263,-0.13504 -0.42771,-0.13504 -0.1725,0 -0.31687,0.045 -0.43323,0.13504 -0.0675,0.0524 -0.11257,0.11257 -0.13502,0.18003 l -0.0506,0.0618 -0.0957,0.0117 -0.0618,-0.0562 c -0.015,-0.0262 -0.0188,-0.0544 -0.0117,-0.0845 0.0301,-0.10884 0.10126,-0.20446 0.21381,-0.28694 0.15753,-0.12377 0.37369,-0.18594 0.57387,-0.18566 0.20018,2.8e-4 0.41071,0.0619 0.56837,0.18566 0.10114,0.0825 0.17442,0.17442 0.21931,0.27569 l 0,0.0901 -0.0675,0.0562 c -0.0299,0.0151 -0.0597,0.0151 -0.0898,0 z" />
      <path
         d="m -402.61726,196.0419 -0.0562,-0.0618 c -0.0301,-0.0675 -0.0787,-0.12941 -0.14628,-0.18566 -0.12006,-0.0901 -0.26263,-0.13504 -0.42771,-0.13504 -0.1725,0 -0.31687,0.045 -0.43323,0.13504 -0.0675,0.0524 -0.11257,0.11257 -0.13502,0.18003 l -0.0506,0.0618 -0.0957,0.0117 -0.0618,-0.0562 c -0.015,-0.0262 -0.0188,-0.0544 -0.0117,-0.0845 0.0301,-0.10884 0.10126,-0.20446 0.21381,-0.28694 0.15753,-0.12377 0.37369,-0.18594 0.57387,-0.18566 0.20018,2.8e-4 0.41071,0.0619 0.56837,0.18566 0.10114,0.0825 0.17442,0.17442 0.21931,0.27569 l 0,0.0901 -0.0675,0.0562 c -0.0299,0.0151 -0.0597,0.0151 -0.0898,0 z"
         id="path45575"
         inkscape:connector-curvature="0"
         style="fill:#728db1;fill-opacity:1;stroke:#728db1;stroke-width:0.14351322;stroke-miterlimit:4;stroke-opacity:1;stroke-dasharray:none"
         sodipodi:nodetypes="cccsccccccczcccccc" />
      <path
         sodipodi:nodetypes="cccsccccccczcccccc"
         style="fill:#728db1;fill-opacity:1;stroke:#728db1;stroke-width:0.14351322;stroke-miterlimit:4;stroke-opacity:1;stroke-dasharray:none"
         inkscape:connector-curvature="0"
         id="path45577"
         d="m -406.41796,195.97561 -0.0562,-0.0618 c -0.0301,-0.0675 -0.0787,-0.12941 -0.14628,-0.18566 -0.12006,-0.0901 -0.26263,-0.13504 -0.42771,-0.13504 -0.1725,0 -0.31687,0.045 -0.43323,0.13504 -0.0675,0.0524 -0.11257,0.11257 -0.13502,0.18003 l -0.0506,0.0618 -0.0957,0.0117 -0.0618,-0.0562 c -0.015,-0.0262 -0.0188,-0.0544 -0.0117,-0.0845 0.0301,-0.10884 0.10126,-0.20446 0.21381,-0.28694 0.15753,-0.12377 0.37369,-0.18594 0.57387,-0.18566 0.20018,2.8e-4 0.41071,0.0619 0.56837,0.18566 0.10114,0.0825 0.17442,0.17442 0.21931,0.27569 l 0,0.0901 -0.0675,0.0562 c -0.0299,0.0151 -0.0597,0.0151 -0.0898,0 z" />
      <path
         sodipodi:end="6.4889986"
         sodipodi:start="3.0060649"
         transform="matrix(0.99912414,-0.04184434,0.04184434,0.99912414,19.487157,-17.62417)"
         d="m -435.1176,197.99916 c -0.1484,-0.58042 0.61352,-1.1151 1.7018,-1.19424 1.08828,-0.0791 2.09081,0.32721 2.23921,0.90762 0.0306,0.11987 0.0226,0.24165 -0.0237,0.36007 l -1.94676,-0.21676 z"
         sodipodi:ry="1.0606601"
         sodipodi:rx="1.9887378"
         sodipodi:cy="197.85585"
         sodipodi:cx="-433.14709"
         id="path45605"
         style="fill:#728db1;fill-opacity:1;stroke:#728db1;stroke-width:0.14351322;stroke-linecap:round;stroke-linejoin:round;stroke-miterlimit:4;stroke-opacity:1;stroke-dasharray:none;stroke-dashoffset:0"
         sodipodi:type="arc" />
    </g>
    <g
       transform="matrix(1.3935999,0,0,1.3935999,1117.8169,-82.521308)"
       id="g46303"
       inkscape:export-filename="../public/img/sprites/pickup-baby-2.png"
       inkscape:export-xdpi="133.00551"
       inkscape:export-ydpi="133.00551">
      <path
         style="fill:#8db5e7"
         inkscape:connector-curvature="0"
         id="path45579"
         d="m -376.44974,187.51079 0.24048,0.0127 v 0.038 c 1.18971,0.15188 2.22325,0.66649 3.10086,1.5441 1.06315,1.06315 1.59472,2.34577 1.59472,3.8476 v 10.22651 c 0,0.91988 -0.53157,1.70433 -1.59472,2.35412 -0.87761,0.53183 -1.91115,0.84394 -3.10086,0.93659 v 0.0256 h -0.0506 -0.18985 -0.16428 -0.10125 v -0.0256 c -1.17276,-0.101 -2.1982,-0.41362 -3.0753,-0.93659 -1.06315,-0.64954 -1.59498,-1.43424 -1.59498,-2.35412 v -10.22651 c 0,-1.50183 0.53183,-2.78445 1.59498,-3.8476 0.87736,-0.86926 1.90279,-1.37957 3.0753,-1.53145 v -0.0506 l 0.26553,-0.0127 z" />
      <path
         style="fill:#8db5e7"
         inkscape:connector-curvature="0"
         id="path45581"
         d="m -384.77751,203.73652 c -0.12657,-0.12657 -0.18985,-0.27845 -0.18985,-0.45564 0,-0.16049 0.059,-0.30806 0.17719,-0.44298 1.45981,-1.5274 3.1725,-1.86457 5.13857,-1.01253 l 0.0759,0.0377 -1.64535,1.64535 c -0.81002,-0.86039 -1.69598,-0.78875 -2.65788,0.21542 -0.12657,0.12656 -0.27415,0.18985 -0.44298,0.18985 -0.1772,0.008 -0.32907,-0.0506 -0.45564,-0.17719 z m 16.09916,-0.45564 c -0.008,0.16884 -0.0759,0.31641 -0.20251,0.44298 -0.12656,0.12656 -0.27844,0.18554 -0.45563,0.17719 -0.16884,0 -0.31642,-0.0633 -0.44298,-0.18985 -0.95355,-0.99582 -1.83521,-1.06315 -2.64523,-0.20276 l -1.64535,-1.64535 c 0.0167,-0.0253 0.038,-0.042 0.0633,-0.0504 1.96607,-0.8523 3.67876,-0.51462 5.13857,1.01252 0.11796,0.13517 0.18124,0.2868 0.18985,0.45564 z" />
      <path
         style="fill:#8db5e7"
         inkscape:connector-curvature="0"
         id="path45583"
         d="m -372.28547,203.30619 c 1.7466,1.53575 2.48068,2.92367 2.20224,4.16401 -0.10986,0.48095 -0.31211,0.8647 -0.60752,1.15175 -0.37134,0.21921 -0.68775,0.18985 -0.94924,-0.0886 -0.15188,-1.5274 -1.00822,-2.54828 -2.56903,-3.06315 0.32046,-1.02923 0.96165,-1.7504 1.92355,-2.16402 z m -7.61926,2.16428 c 0.32072,-1.02924 0.9619,-1.75066 1.9238,-2.16428 1.74661,1.53575 2.48069,2.92367 2.20224,4.16401 -0.10986,0.48095 -0.31211,0.8647 -0.60751,1.15175 -0.37135,0.21921 -0.68776,0.18985 -0.94925,-0.0886 -0.15188,-1.5274 -1.00847,-2.54828 -2.56928,-3.06289 z" />
      <path
         style="opacity:0.30199998;fill:#ffffff"
         inkscape:connector-curvature="0"
         id="path45587"
         d="m -375.23446,189.39662 c 0.46399,-0.4726 1.02519,-0.70877 1.68308,-0.70877 0.65839,0 1.21908,0.23643 1.68332,0.70877 0.46399,0.46399 0.69611,1.02518 0.69611,1.68332 0,0.65815 -0.23212,1.21908 -0.69611,1.68333 -0.46424,0.46399 -1.02544,0.69611 -1.68332,0.69611 -0.65789,0 -1.21909,-0.23212 -1.68308,-0.69611 -0.47259,-0.46399 -0.70902,-1.02518 -0.70902,-1.68333 0,-0.65814 0.23643,-1.21908 0.70902,-1.68332 z"
         enable-background="new    " />
      <path
         style="opacity:0.2;fill:#ffffff"
         inkscape:connector-curvature="0"
         id="path45589"
         d="m -373.55113,188.68785 c -0.65814,0 -1.21908,0.23643 -1.68307,0.70877 -0.4726,0.46399 -0.70902,1.02518 -0.70902,1.68332 0,0.65815 0.23642,1.21908 0.70902,1.68333 0.46399,0.46399 1.02518,0.69611 1.68307,0.69611 0.65839,0 1.21908,-0.23212 1.68332,-0.69611 0.46399,-0.46399 0.69611,-1.02518 0.69611,-1.68333 0,-0.65814 -0.23212,-1.21908 -0.69611,-1.68332 -0.46424,-0.4726 -1.02543,-0.70877 -1.68332,-0.70877 z m -2.89861,-1.96177 c 1.92405,0 3.57346,0.68346 4.94897,2.05037 1.35831,1.35855 2.03771,2.99961 2.03771,4.9234 0,1.93216 -0.6794,3.58181 -2.03771,4.94872 -1.37551,1.35831 -3.02492,2.03771 -4.94897,2.03771 -1.9238,0 -3.56485,-0.6794 -4.92315,-2.03771 -1.37552,-1.36691 -2.06302,-3.01656 -2.06302,-4.94872 0,-1.92379 0.68775,-3.56485 2.06302,-4.9234 1.3583,-1.36691 2.9996,-2.05037 4.92315,-2.05037 z"
         enable-background="new    " />
      <path
         style="fill:#ffffff"
         inkscape:connector-curvature="0"
         id="path45591"
         d="m -371.50077,188.77645 c -1.37551,-1.36691 -3.02492,-2.05037 -4.94897,-2.05037 -1.9238,0 -3.56485,0.68346 -4.92315,2.05037 -1.37552,1.35855 -2.06302,2.99961 -2.06302,4.9234 0,1.93216 0.68775,3.58181 2.06302,4.94872 1.3583,1.35831 2.9996,2.03771 4.92315,2.03771 1.92405,0 3.57346,-0.6794 4.94897,-2.03771 1.35831,-1.36691 2.03771,-3.01656 2.03771,-4.94872 0,-1.92379 -0.6794,-3.56485 -2.03771,-4.9234 z m -13.2008,4.9234 c 0,-2.27818 0.81002,-4.21894 2.43006,-5.82202 1.60334,-1.61169 3.54384,-2.4174 5.82202,-2.4174 2.27819,0 4.2273,0.80597 5.84759,2.4174 1.60308,1.60308 2.40475,3.54384 2.40475,5.82202 0,2.28654 -0.80167,4.23565 -2.40475,5.84734 -1.62004,1.60308 -3.5694,2.40475 -5.84759,2.40475 -2.27818,0 -4.21868,-0.80167 -5.82202,-2.40475 -1.62004,-1.61169 -2.43006,-3.5608 -2.43006,-5.84734 z" />
      <path
         style="opacity:0.50199998;fill:#a3c3eb"
         inkscape:connector-curvature="0"
         id="path45593"
         d="m -380.0313,201.80006 c 0.20251,0 0.3754,0.0716 0.51892,0.21541 0.14328,0.14328 0.21516,0.31642 0.21516,0.51892 0,0.20251 -0.0716,0.3754 -0.21516,0.51892 -0.14327,0.14353 -0.31641,0.21542 -0.51892,0.21542 -0.2025,0 -0.37539,-0.0716 -0.51892,-0.21542 -0.14352,-0.14327 -0.21541,-0.31641 -0.21541,-0.51892 0,-0.2025 0.0716,-0.37539 0.21541,-0.51892 0.14353,-0.14377 0.31642,-0.21541 0.51892,-0.21541 z m 0.72143,2.94898 c -0.14327,0 -0.26579,-0.0506 -0.36704,-0.15188 -0.101,-0.10125 -0.15188,-0.22377 -0.15188,-0.36704 0,-0.14352 0.0506,-0.26579 0.15188,-0.36704 0.10125,-0.10125 0.22377,-0.15188 0.36704,-0.15188 0.14327,0 0.26579,0.0504 0.36704,0.15188 0.10125,0.10151 0.15188,0.22352 0.15188,0.36704 0,0.14327 -0.0504,0.26579 -0.15188,0.36704 -0.10151,0.10126 -0.22377,0.15188 -0.36704,0.15188 z m 3.23983,-0.24047 c 0,0.27869 -0.0969,0.51487 -0.29085,0.70876 -0.19415,0.19441 -0.43032,0.29111 -0.70877,0.29111 -0.2787,0 -0.51487,-0.097 -0.70902,-0.29111 -0.19415,-0.19389 -0.29085,-0.43007 -0.29085,-0.70876 0,-0.27845 0.0969,-0.51462 0.29085,-0.70877 0.1939,-0.19415 0.43032,-0.2911 0.70902,-0.2911 0.27845,0 0.51462,0.0972 0.70877,0.2911 0.19415,0.1939 0.29085,0.43032 0.29085,0.70877 z"
         enable-background="new    " />
      <path
         d="m -371.51368,203.17963 c 0,0.91988 -0.53157,1.70433 -1.59472,2.35412 -0.87761,0.53183 -1.91115,0.84394 -3.10086,0.93659 l 0,0.0256 -0.0506,0 -0.18985,0 -0.16428,0 -0.10125,0 0,-0.0256 c -1.17276,-0.101 -2.1982,-0.41362 -3.0753,-0.93659 -1.06315,-0.64954 -1.59498,-1.43424 -1.59498,-2.35412 1.65123,-0.0968 1.9862,0.10696 4.20542,0.74764 2.21922,0.64069 4.62229,-0.16111 5.66645,-0.74764 z"
         id="path45595"
         inkscape:connector-curvature="0"
         style="fill:#ffffff"
         sodipodi:nodetypes="cccccccccccsc" />
      <path
         d="m -374.48767,194.91495 -0.0562,-0.0618 c -0.0301,-0.0675 -0.0787,-0.12941 -0.14628,-0.18566 -0.12006,-0.0901 -0.26263,-0.13504 -0.42771,-0.13504 -0.1725,0 -0.31687,0.045 -0.43323,0.13504 -0.0675,0.0524 -0.11257,0.11257 -0.13502,0.18003 l -0.0506,0.0618 -0.0957,0.0117 -0.0618,-0.0562 c -0.015,-0.0262 -0.0188,-0.0544 -0.0117,-0.0845 0.0301,-0.10884 0.10126,-0.20446 0.21381,-0.28694 0.15753,-0.12377 0.37369,-0.18594 0.57387,-0.18566 0.20018,2.8e-4 0.41071,0.0619 0.56837,0.18566 0.10114,0.0825 0.17442,0.17442 0.21931,0.27569 l 0,0.0901 -0.0675,0.0562 c -0.0299,0.0151 -0.0597,0.0151 -0.0898,0 z"
         id="path45599"
         inkscape:connector-curvature="0"
         style="fill:#728db1;fill-opacity:1;stroke:#728db1;stroke-width:0.14351322;stroke-miterlimit:4;stroke-opacity:1;stroke-dasharray:none"
         sodipodi:nodetypes="cccsccccccczcccccc" />
      <path
         sodipodi:nodetypes="cccsccccccczcccccc"
         style="fill:#728db1;fill-opacity:1;stroke:#728db1;stroke-width:0.14351322;stroke-miterlimit:4;stroke-opacity:1;stroke-dasharray:none"
         inkscape:connector-curvature="0"
         id="path45601"
         d="m -372.56522,196.0419 -0.0562,-0.0618 c -0.0301,-0.0675 -0.0787,-0.12941 -0.14628,-0.18566 -0.12006,-0.0901 -0.26263,-0.13504 -0.42771,-0.13504 -0.1725,0 -0.31687,0.045 -0.43323,0.13504 -0.0675,0.0524 -0.11257,0.11257 -0.13502,0.18003 l -0.0506,0.0618 -0.0957,0.0117 -0.0618,-0.0562 c -0.015,-0.0262 -0.0188,-0.0544 -0.0117,-0.0845 0.0301,-0.10884 0.10126,-0.20446 0.21381,-0.28694 0.15753,-0.12377 0.37369,-0.18594 0.57387,-0.18566 0.20018,2.8e-4 0.41071,0.0619 0.56837,0.18566 0.10114,0.0825 0.17442,0.17442 0.21931,0.27569 l 0,0.0901 -0.0675,0.0562 c -0.0299,0.0151 -0.0597,0.0151 -0.0898,0 z" />
      <path
         d="m -376.36592,195.97561 -0.0562,-0.0618 c -0.0301,-0.0675 -0.0787,-0.12941 -0.14628,-0.18566 -0.12006,-0.0901 -0.26263,-0.13504 -0.42771,-0.13504 -0.1725,0 -0.31687,0.045 -0.43323,0.13504 -0.0675,0.0524 -0.11257,0.11257 -0.13502,0.18003 l -0.0506,0.0618 -0.0957,0.0117 -0.0618,-0.0562 c -0.015,-0.0262 -0.0188,-0.0544 -0.0117,-0.0845 0.0301,-0.10884 0.10126,-0.20446 0.21381,-0.28694 0.15753,-0.12377 0.37369,-0.18594 0.57387,-0.18566 0.20018,2.8e-4 0.41071,0.0619 0.56837,0.18566 0.10114,0.0825 0.17442,0.17442 0.21931,0.27569 l 0,0.0901 -0.0675,0.0562 c -0.0299,0.0151 -0.0597,0.0151 -0.0898,0 z"
         id="path45603"
         inkscape:connector-curvature="0"
         style="fill:#728db1;fill-opacity:1;stroke:#728db1;stroke-width:0.14351322;stroke-miterlimit:4;stroke-opacity:1;stroke-dasharray:none"
         sodipodi:nodetypes="cccsccccccczcccccc" />
      <path
         sodipodi:type="arc"
         style="fill:#728db1;fill-opacity:1;stroke:#728db1;stroke-width:0.12166532;stroke-linecap:round;stroke-linejoin:round;stroke-miterlimit:4;stroke-opacity:1;stroke-dasharray:none;stroke-dashoffset:0"
         id="path45607"
         sodipodi:cx="-433.14709"
         sodipodi:cy="197.85585"
         sodipodi:rx="1.9887378"
         sodipodi:ry="1.0606601"
         d="m -435.1176,197.99916 c -0.1484,-0.58042 0.61352,-1.1151 1.7018,-1.19424 1.08828,-0.0791 2.09081,0.32721 2.23921,0.90762 0.0306,0.11987 0.0226,0.24165 -0.0237,0.36007 l -1.94676,-0.21676 z"
         transform="matrix(0.99523574,-0.09749778,0.13565788,1.3847655,29.21844,-117.61898)"
         sodipodi:start="3.0060649"
         sodipodi:end="6.4889986" />
    </g>
    <path
       style="fill:#000000;fill-opacity:0.05098039;stroke:none"
       inkscape:connector-curvature="0"
       id="path61206"
       d="m 563.33972,235.77518 q 0,3.11024 -4.05512,5.27559 -4.01576,2.16536 -9.72443,2.16536 -5.74804,0 -9.7638,-2.16536 -4.01575,-2.16535 -4.01575,-5.27559 0,-3.11025 4.01575,-5.31498 4.01576,-2.20473 9.7638,-2.20473 5.70867,0 9.72443,2.20473 4.05512,2.20473 4.05512,5.31498"
       inkscape:export-filename="../public/img/sprites/shadow-1.png"
       inkscape:export-xdpi="90.236687"
       inkscape:export-ydpi="90.236687" />
    <path
       inkscape:export-ydpi="90.236687"
       inkscape:export-xdpi="90.236687"
       inkscape:export-filename="../public/img/sprites/shadow-1.png"
       d="m 606.82679,235.77518 q 0,3.11024 -4.05512,5.27559 -4.01576,2.16536 -9.72443,2.16536 -5.74804,0 -9.7638,-2.16536 -4.01575,-2.16535 -4.01575,-5.27559 0,-3.11025 4.01575,-5.31498 4.01576,-2.20473 9.7638,-2.20473 5.70867,0 9.72443,2.20473 4.05512,2.20473 4.05512,5.31498"
       id="path61208"
       inkscape:connector-curvature="0"
       style="fill:#000000;fill-opacity:0.05098039;stroke:none" />
    <text
       xml:space="preserve"
       style="font-size:40px;font-style:normal;font-variant:normal;font-weight:normal;font-stretch:normal;text-align:center;line-height:125%;letter-spacing:0px;word-spacing:0px;text-anchor:middle;fill:#000000;fill-opacity:1;stroke:none;font-family:Lobster;-inkscape-font-specification:Lobster"
       x="165"
       y="46.362183"
       id="text61220"
       sodipodi:linespacing="125%"><tspan
         sodipodi:role="line"
         id="tspan61222"
         x="165"
         y="46.362183">export at 132dpi!</tspan></text>
    <path
       inkscape:export-ydpi="90.236687"
       inkscape:export-xdpi="90.236687"
       inkscape:export-filename="../public/img/sprites/shadow-1.png"
       d="m 163.14019,587.27518 q 0,3.11024 -4.05512,5.27559 -4.01576,2.16536 -9.72443,2.16536 -5.74804,0 -9.7638,-2.16536 -4.01575,-2.16535 -4.01575,-5.27559 0,-3.11025 4.01575,-5.31498 4.01576,-2.20473 9.7638,-2.20473 5.70867,0 9.72443,2.20473 4.05512,2.20473 4.05512,5.31498"
       id="path3058"
       inkscape:connector-curvature="0"
       style="fill:#000000;fill-opacity:0.05098039;stroke:none" />
    <g
       inkscape:export-ydpi="131.76393"
       inkscape:export-xdpi="131.76393"
       inkscape:export-filename="../public/img/sprites/pickup-star-1.png"
       id="g3060"
       transform="translate(-250.25,351.5)">
      <path
         style="fill:#fee481;stroke:none"
         inkscape:connector-curvature="0"
         id="path3062"
         d="m 412.81981,193.66208 -7.15912,-2.62223 -5.61906,-7.03425 -5.70232,7.03425 -7.15912,2.62223 -1.33192,-1.99789 8.49104,-3.1217 5.70232,-7.03425 5.61906,7.03425 8.49104,3.1217 -1.33192,1.99789" />
      <path
         style="fill:#ffcc00;stroke:none"
         inkscape:connector-curvature="0"
         id="path3064"
         d="m 412.81981,193.66208 -3.66281,5.53583 -0.45784,8.94889 -8.65753,-2.3725 -8.7824,2.3725 -0.41623,-8.94889 -3.66281,-5.53583 7.15912,-2.62223 5.70232,-7.03425 5.61906,7.03425 7.15912,2.62223" />
    </g>
    <g
       style="stroke:#000000;stroke-opacity:1;filter:url(#filter3975)"
       inkscape:export-ydpi="131.76393"
       inkscape:export-xdpi="131.76393"
       inkscape:export-filename="../public/img/sprites/pickup-star-1.png"
       id="g3857"
       transform="translate(-205,351.5)">
      <path
         inkscape:connector-curvature="0"
         id="path3859"
         d="m 354.15625,176.5625 c -3.76139,2.04339 -4.79646,7.38645 -9.1875,9 -2.99176,2.1756 -10.22053,1.92814 -8.4375,7.28125 1.69107,4.41841 7.28228,8.0626 4.78125,13.28125 -1.27866,4.52656 3.71689,7.36679 7.5,5.53125 3.52523,-1.39995 7.10036,-2.34055 10.6875,-0.15625 3.74414,1.83714 9.26449,-0.39892 8.25,-5.1875 -2.68564,-5.9351 3.94269,-9.54944 5.09375,-14.78125 0.55805,-4.66473 -5.99604,-3.39526 -8.6875,-5.875 -4.55206,-1.62986 -5.42526,-7.44357 -9.53125,-9.1875 l -0.46875,0.0937 z"
         style="fill:none;stroke:#ffcc00;stroke-opacity:1" />
    </g>
    <g
       inkscape:export-ydpi="130.87729"
       inkscape:export-xdpi="130.87729"
       inkscape:export-filename="../public/img/sprites/pickup-mushroom-1.png"
       transform="matrix(1.1993626,0,0,1.1993626,-884.40639,-187.5624)"
       id="g3979">
      <path
         style="fill:#fca66c;stroke:none"
         inkscape:connector-curvature="0"
         id="path3981"
         d="m 911.49949,602.36829 q -2.07987,-3.04575 -1.66699,-4.39558 l 0.24432,-0.44756 0.0321,-0.0383 q 1.41859,-1.61635 3.29007,-2.52744 l 0.37712,0.25056 0.35126,0.35933 q 0.97711,1.01378 1.09562,2.35204 0.14968,1.69045 -0.94169,2.99387 -1.09137,1.30343 -2.74971,1.41478 l -0.0321,0.0383 m 25.4828,20.42399 -3.39594,-1.47398 -2.01401,-1.09943 -0.12656,-0.62768 q -0.14345,-1.62001 0.88372,-2.84676 1.02717,-1.22675 2.64717,-1.3702 1.62001,-0.14345 2.84676,0.88372 1.22675,1.02717 1.3702,2.64718 0.14345,1.62001 -0.88372,2.84676 -0.57778,0.69005 -1.32762,1.04039 m -2.02018,-17.60344 q 0.76672,0.64198 0.85404,1.62807 0.0936,1.05652 -0.54843,1.82324 -0.64198,0.76672 -1.66641,0.82194 -1.01819,0.12566 -1.78491,-0.51633 -0.76672,-0.64198 -0.86027,-1.6985 -0.0873,-0.98609 0.55466,-1.75282 0.64198,-0.76672 1.66018,-0.89237 1.02442,-0.0552 1.79114,0.58677 m -16.10344,-4.28855 q 1.02717,-1.22675 2.64718,-1.3702 1.62,-0.14345 2.84676,0.88372 1.22675,1.02717 1.3702,2.64718 0.14345,1.62001 -0.88372,2.84676 -1.02717,1.22675 -2.64718,1.3702 -1.62001,0.14345 -2.84676,-0.88372 -1.22675,-1.02717 -1.3702,-2.64718 -0.14345,-1.62001 0.88372,-2.84676" />
      <path
         style="fill:#efebdc;stroke:none"
         inkscape:connector-curvature="0"
         id="path3983"
         d="m 927.64966,616.4144 -8.31281,9.92801 -9.35399,-7.83218 8.31281,-9.928 4.49918,4.12844 4.85481,3.70373" />
      <path
         style="fill:#e1d7bf;stroke:none"
         inkscape:connector-curvature="0"
         id="path3985"
         d="m 929.39158,610.45179 -1.00705,5.56235 -6.0814,-0.65046 -8.51195,-1.52298 3.59557,-5.56235 5.92343,1.52297 6.0814,0.65047"
         sodipodi:nodetypes="ccccccc" />
      <path
         style="fill:#e86a17;stroke:none"
         inkscape:connector-curvature="0"
         id="path3987"
         d="m 918.85867,600.90029 q -1.02717,1.22675 -0.88372,2.84676 0.14345,1.62001 1.3702,2.64718 1.22675,1.02717 2.84676,0.88372 1.62001,-0.14345 2.64718,-1.3702 1.02717,-1.22675 0.88372,-2.84676 -0.14345,-1.62001 -1.3702,-2.64718 -1.22676,-1.02717 -2.84676,-0.88372 -1.62001,0.14345 -2.64718,1.3702 m 20.72257,21.9813 q -0.81404,0.42702 -2.59895,-0.0893 0.74984,-0.35034 1.32762,-1.04039 1.02717,-1.22675 0.88372,-2.84676 -0.14345,-1.62001 -1.3702,-2.64718 -1.22675,-1.02717 -2.84676,-0.88372 -1.62,0.14345 -2.64717,1.3702 -1.02717,1.22675 -0.88372,2.84676 l 0.12656,0.62768 -4.59591,-3.00043 -4.80539,-3.76274 -4.5486,-4.06943 -5.19756,-5.78665 -0.92539,-1.23133 0.0321,-0.0383 q 1.65834,-0.11135 2.74971,-1.41478 1.09137,-1.30342 0.94169,-2.99387 -0.11851,-1.33826 -1.09562,-2.35204 2.42157,-0.71134 5.4556,-0.51858 7.04077,0.54784 13.21286,5.71579 6.21044,5.20005 7.94862,12.0029 1.48413,5.938 -1.16321,10.11221 m -4.61913,-17.69275 q -0.76672,-0.64199 -1.79114,-0.58677 -1.0182,0.12565 -1.66018,0.89237 -0.64198,0.76673 -0.55466,1.75282 0.0935,1.05652 0.86027,1.6985 0.76672,0.64199 1.78491,0.51633 1.02443,-0.0552 1.66641,-0.82194 0.64198,-0.76672 0.54843,-1.82324 -0.0873,-0.98609 -0.85404,-1.62807" />
      <path
         style="fill:#ef975c;stroke:none"
         inkscape:connector-curvature="0"
         id="path3989"
         d="m 913.39899,594.95938 q 3.05731,-1.54849 7.30745,-1.25045 7.04077,0.54784 13.21286,5.71579 6.21044,5.20005 7.94862,12.0029 1.65527,6.66821 -1.85692,11.09647 l -0.0321,0.0383 -0.39766,0.31916 q 2.64734,-4.17421 1.16321,-10.11221 -1.73818,-6.80285 -7.94862,-12.0029 -6.17209,-5.16795 -13.21286,-5.71579 -3.03403,-0.19276 -5.4556,0.51858 l -0.35126,-0.35933 -0.37712,-0.25056" />
    </g>
    <path
       style="fill:#000000;fill-opacity:0.05098039;stroke:none"
       inkscape:connector-curvature="0"
       id="path3991"
       d="m 237.6897,586.77518 q 0,3.11024 -4.05512,5.27559 -4.01576,2.16536 -9.72443,2.16536 -5.74804,0 -9.7638,-2.16536 -4.01575,-2.16535 -4.01575,-5.27559 0,-3.11025 4.01575,-5.31498 4.01576,-2.20473 9.7638,-2.20473 5.70867,0 9.72443,2.20473 4.05512,2.20473 4.05512,5.31498"
       inkscape:export-filename="../public/img/sprites/shadow-1.png"
       inkscape:export-xdpi="90.236687"
       inkscape:export-ydpi="90.236687" />
    <g
       id="g3993"
       transform="matrix(1.1993626,0,0,1.1993626,-884.90639,-187.5624)"
       inkscape:export-filename="../public/img/sprites/pickup-mushroom-1.png"
       inkscape:export-xdpi="130.87729"
       inkscape:export-ydpi="130.87729"
       style="fill:#ffcc00;fill-opacity:1;stroke:#000000;stroke-width:1;stroke-opacity:1">
      <path
         style="fill:none;stroke:#ffcc00;stroke-width:1;stroke-opacity:1;filter:url(#filter4049)"
         d="m 918.587,592.00708 c -4.14916,0.20886 -10.61428,2.34913 -10.4222,7.34766 1.05883,3.86643 4.25536,6.61112 6.80048,9.56237 -0.81777,4.16598 -9.44866,8.25171 -5.40596,11.40084 3.8192,1.6409 8.26938,10.4191 11.59501,6.45907 3.07733,-2.61481 5.36791,-10.19811 9.62664,-5.09271 3.22731,1.86196 9.16924,5.48439 11.49048,0.49505 5.25408,-9.82761 -2.08334,-21.3503 -10.63064,-26.44634 -3.85771,-2.4577 -8.442,-3.92247 -13.05381,-3.72594 z"
         id="path4003"
         inkscape:connector-curvature="0" />
    </g>
    <g
       transform="translate(-205,351.5)"
       id="g4006"
       inkscape:export-filename="../public/img/sprites/pickup-star-1.png"
       inkscape:export-xdpi="131.76393"
       inkscape:export-ydpi="131.76393"
       style="stroke:#000000;stroke-opacity:1;filter:url(#filter4034)">
      <path
         style="fill:none;stroke:#ffcc00;stroke-opacity:1"
         d="m 354.15625,176.5625 c -3.76139,2.04339 -4.79646,7.38645 -9.1875,9 -2.99176,2.1756 -10.22053,1.92814 -8.4375,7.28125 1.69107,4.41841 7.28228,8.0626 4.78125,13.28125 -1.27866,4.52656 3.71689,7.36679 7.5,5.53125 3.52523,-1.39995 7.10036,-2.34055 10.6875,-0.15625 3.74414,1.83714 9.26449,-0.39892 8.25,-5.1875 -2.68564,-5.9351 3.94269,-9.54944 5.09375,-14.78125 0.55805,-4.66473 -5.99604,-3.39526 -8.6875,-5.875 -4.55206,-1.62986 -5.42526,-7.44357 -9.53125,-9.1875 l -0.46875,0.0937 z"
         id="path4008"
         inkscape:connector-curvature="0" />
    </g>
  </g>
</svg>
