<?xml version="1.0" encoding="UTF-8" standalone="no"?>
<!-- Created with Inkscape (http://www.inkscape.org/) -->

<svg
   xmlns:dc="http://purl.org/dc/elements/1.1/"
   xmlns:cc="http://creativecommons.org/ns#"
   xmlns:rdf="http://www.w3.org/1999/02/22-rdf-syntax-ns#"
   xmlns:svg="http://www.w3.org/2000/svg"
   xmlns="http://www.w3.org/2000/svg"
   xmlns:sodipodi="http://sodipodi.sourceforge.net/DTD/sodipodi-0.dtd"
   xmlns:inkscape="http://www.inkscape.org/namespaces/inkscape"
   width="744.09448819"
   height="1052.3622047"
   id="svg46607"
   version="1.1"
   inkscape:version="0.48.3.1 r9886"
   sodipodi:docname="New document 49">
  <defs
     id="defs46609" />
  <sodipodi:namedview
     id="base"
     pagecolor="#ffffff"
     bordercolor="#666666"
     borderopacity="1.0"
     inkscape:pageopacity="0.0"
     inkscape:pageshadow="2"
     inkscape:zoom="2.8284271"
     inkscape:cx="390.81049"
     inkscape:cy="825.84215"
     inkscape:document-units="px"
     inkscape:current-layer="layer1"
     showgrid="false"
     inkscape:window-width="1920"
     inkscape:window-height="1048"
     inkscape:window-x="0"
     inkscape:window-y="14"
     inkscape:window-maximized="1" />
  <metadata
     id="metadata46612">
    <rdf:RDF>
      <cc:Work
         rdf:about="">
        <dc:format>image/svg+xml</dc:format>
        <dc:type
           rdf:resource="http://purl.org/dc/dcmitype/StillImage" />
        <dc:title></dc:title>
      </cc:Work>
    </rdf:RDF>
  </metadata>
  <g
     inkscape:label="Layer 1"
     inkscape:groupmode="layer"
     id="layer1">
    <rect
       style="fill:#008080;fill-opacity:1;stroke:#dfdfdf;stroke-width:0;stroke-linecap:round;stroke-linejoin:round;stroke-miterlimit:4;stroke-opacity:1;stroke-dasharray:none;stroke-dashoffset:0"
       id="rect27109"
       width="284.1615"
       height="255.27951"
       x="87.91925"
       y="212.72241" />
    <path
       style="fill:#000000;fill-opacity:0.05098039;stroke:none"
       inkscape:connector-curvature="0"
       id="path45467"
       d="m 414.14019,235.77518 q 0,3.11024 -4.05512,5.27559 -4.01576,2.16536 -9.72443,2.16536 -5.74804,0 -9.7638,-2.16536 -4.01575,-2.16535 -4.01575,-5.27559 0,-3.11025 4.01575,-5.31498 4.01576,-2.20473 9.7638,-2.20473 5.70867,0 9.72443,2.20473 4.05512,2.20473 4.05512,5.31498"
       inkscape:export-filename="../public/img/sprites/shadow-1.png"
       inkscape:export-xdpi="90.236687"
       inkscape:export-ydpi="90.236687" />
    <g
       id="g46777">
      <path
         d="m 412.81981,193.66208 -7.15912,-2.62223 -5.61906,-7.03425 -5.70232,7.03425 -7.15912,2.62223 -1.33192,-1.99789 8.49104,-3.1217 5.70232,-7.03425 5.61906,7.03425 8.49104,3.1217 -1.33192,1.99789"
         id="path25923"
         inkscape:connector-curvature="0"
         style="fill:#fee481;stroke:none" />
      <path
         d="m 412.81981,193.66208 -3.66281,5.53583 -0.45784,8.94889 -8.65753,-2.3725 -8.7824,2.3725 -0.41623,-8.94889 -3.66281,-5.53583 7.15912,-2.62223 5.70232,-7.03425 5.61906,7.03425 7.15912,2.62223"
         id="path25925"
         inkscape:connector-curvature="0"
         style="fill:#ffcc00;stroke:none" />
    </g>
    <g
       id="g27630"
       inkscape:export-filename="../public/img/sprites/pink-walk-2.png"
       inkscape:export-xdpi="64.349998"
       inkscape:export-ydpi="64.349998"
       transform="matrix(0.5,0,0,0.5,525.05116,119.13349)">
      <path
         d="m -359.66864,317.8 c 6.9,6.067 9.8,11.55 8.7,16.45 -0.434,1.9 -1.233,3.416 -2.4,4.55 -1.467,0.866 -2.717,0.75 -3.75,-0.35 -0.6,-6.034 -3.983,-10.067 -10.149,-12.101 1.266,-4.066 3.799,-6.915 7.599,-8.549 z m -31.8,24.05 c -1.667,0.934 -3.283,1.351 -4.85,1.25 -1.768,-0.533 -2.467,-1.649 -2.101,-3.35 3.9,-4.367 4.583,-9.483 2.05,-15.35 3.867,-1.768 7.684,-1.768 11.45,0 0.067,9.2 -2.115,15.016 -6.549,17.45 z"
         id="path27071"
         inkscape:connector-curvature="0"
         style="fill:#f19cb7" />
      <path
         d="m -398.56864,289.4 c 0,-5.934 2.1,-11 6.3,-15.2 4.2,-4.2 9.267,-6.3 15.2,-6.3 5.933,0 11,2.1 15.199,6.3 4.2,4.2 6.301,9.267 6.301,15.2 v 30.4 c 0,3.634 -2.101,6.733 -6.301,9.3 -4.199,2.533 -9.267,3.801 -15.199,3.801 -5.934,0 -11,-1.268 -15.2,-3.801 -4.2,-2.566 -6.3,-5.666 -6.3,-9.3 v -30.4 z"
         id="path27073"
         inkscape:connector-curvature="0"
         style="fill:#f19cb7" />
      <path
         d="m -345.71864,300.9 c 0.667,-0.167 1.3,-0.084 1.9,0.25 0.6,0.366 1,0.866 1.199,1.5 0.167,0.633 0.084,1.266 -0.25,1.899 -4,7.333 -10.199,10.366 -18.6,9.101 l -0.3,-0.051 4.6,-8 c 3.967,2.467 7.283,1.316 9.95,-3.449 0.367,-0.633 0.867,-1.05 1.501,-1.25 z m -58.5,20.6 c -0.467,0.5 -1.05,0.75 -1.75,0.75 -0.7,0 -1.3,-0.233 -1.8,-0.7 -0.467,-0.466 -0.717,-1.05 -0.75,-1.75 -0.2,-8.366 3.649,-14.1 11.55,-17.2 l 0.3,-0.1 v 9.2 c -4.667,-0.134 -6.95,2.533 -6.85,8 0,0.7 -0.233,1.3 -0.7,1.8 z"
         id="path27081"
         inkscape:connector-curvature="0"
         style="fill:#f19cb7" />
      <path
         enable-background="new    "
         d="m -377.06864,254.8 c 7.6,0 14.116,2.7 19.55,8.101 5.366,5.366 8.05,11.85 8.05,19.449 0,7.634 -2.684,14.15 -8.05,19.551 -5.434,5.366 -11.95,8.05 -19.55,8.05 -7.601,0 -14.084,-2.684 -19.45,-8.05 -5.434,-5.4 -8.15,-11.917 -8.15,-19.551 0,-7.6 2.717,-14.083 8.15,-19.449 5.366,-5.401 11.85,-8.101 19.45,-8.101 z m 18.1,10.55 c -1.833,-1.866 -4.05,-2.8 -6.65,-2.8 -2.6,0 -4.816,0.934 -6.649,2.8 -1.867,1.834 -2.8,4.051 -2.8,6.65 0,2.599 0.933,4.816 2.8,6.65 1.833,1.833 4.05,2.75 6.649,2.75 2.601,0 4.817,-0.917 6.65,-2.75 1.833,-1.834 2.75,-4.051 2.75,-6.65 0,-2.599 -0.917,-4.816 -2.75,-6.65 z"
         id="path27083"
         inkscape:connector-curvature="0"
         style="opacity:0.2;fill:#ffffff" />
      <path
         d="m -357.51864,262.9 c -5.434,-5.4 -11.95,-8.101 -19.55,-8.101 -7.601,0 -14.084,2.7 -19.45,8.101 -5.434,5.366 -8.15,11.85 -8.15,19.449 0,7.634 2.717,14.15 8.15,19.551 5.366,5.366 11.85,8.05 19.45,8.05 7.6,0 14.116,-2.684 19.55,-8.05 5.366,-5.4 8.05,-11.917 8.05,-19.551 0,-7.599 -2.684,-14.082 -8.05,-19.449 z m -52.15,19.45 c 0,-9 3.2,-16.666 9.601,-23 6.333,-6.366 14,-9.55 23,-9.55 9,0 16.699,3.184 23.1,9.55 6.333,6.334 9.5,14 9.5,23 0,9.033 -3.167,16.734 -9.5,23.101 -6.4,6.333 -14.1,9.5 -23.1,9.5 -9,0 -16.667,-3.167 -23,-9.5 -6.401,-6.367 -9.601,-14.068 -9.601,-23.101 z"
         id="path27085"
         inkscape:connector-curvature="0"
         style="fill:#ffffff" />
      <path
         enable-background="new    "
         d="m -365.61864,262.55 c 2.601,0 4.817,0.934 6.65,2.8 1.833,1.834 2.75,4.051 2.75,6.65 0,2.599 -0.917,4.816 -2.75,6.65 -1.833,1.833 -4.05,2.75 -6.65,2.75 -2.6,0 -4.816,-0.917 -6.649,-2.75 -1.867,-1.834 -2.8,-4.051 -2.8,-6.65 0,-2.599 0.933,-4.816 2.8,-6.65 1.832,-1.867 4.049,-2.8 6.649,-2.8 z"
         id="path27087"
         inkscape:connector-curvature="0"
         style="opacity:0.30199998;fill:#ffffff" />
      <path
         enable-background="new    "
         d="m -384.06864,325.85 c -0.801,-0.199 -1.4,-0.649 -1.801,-1.35 -0.399,-0.7 -0.483,-1.434 -0.25,-2.2 0.167,-0.767 0.601,-1.35 1.301,-1.75 0.699,-0.399 1.449,-0.5 2.25,-0.3 0.732,0.2 1.3,0.65 1.699,1.35 0.4,0.7 0.517,1.434 0.351,2.2 -0.233,0.767 -0.7,1.351 -1.4,1.75 -0.7,0.4 -1.417,0.5 -2.15,0.3 z m 18.15,-3.9 c 0.566,0.966 0.7,1.983 0.4,3.05 -0.267,1.033 -0.867,1.834 -1.8,2.4 -0.967,0.533 -1.983,0.666 -3.051,0.399 -1.033,-0.3 -1.833,-0.933 -2.399,-1.899 -0.533,-0.934 -0.667,-1.917 -0.4,-2.95 0.3,-1.067 0.934,-1.866 1.9,-2.4 0.933,-0.566 1.916,-0.7 2.95,-0.399 1.067,0.265 1.867,0.866 2.4,1.799 z m -12.65,3.7 1.6,-0.2 c 0.533,0.134 0.934,0.45 1.2,0.95 0.3,0.5 0.383,1.016 0.25,1.55 -0.167,0.566 -0.5,0.983 -1,1.25 l -1.55,0.2 c -0.534,-0.134 -0.95,-0.45 -1.25,-0.95 -0.268,-0.5 -0.334,-1.017 -0.2,-1.55 0.166,-0.533 0.484,-0.95 0.95,-1.25 z"
         id="path27089"
         inkscape:connector-curvature="0"
         style="opacity:0.50199998;fill:#f3afc5" />
    </g>
    <path
       style="fill:#000000;fill-opacity:0.05098039;stroke:none"
       inkscape:connector-curvature="0"
       id="path45467-5"
       d="m 351.14173,305.50385 q 0,3.11024 -4.05512,5.27559 -4.01576,2.16536 -9.72443,2.16536 -5.74804,0 -9.7638,-2.16536 -4.01575,-2.16535 -4.01575,-5.27559 0,-3.11025 4.01575,-5.31498 4.01576,-2.20473 9.7638,-2.20473 5.70867,0 9.72443,2.20473 4.05512,2.20473 4.05512,5.31498"
       inkscape:export-filename="../public/img/sprites/shadow-1.png"
       inkscape:export-xdpi="90.236687"
       inkscape:export-ydpi="90.236687" />
  </g>
</svg>
