<?xml version="1.0" encoding="UTF-8" standalone="no"?>
<!-- Created with Inkscape (http://www.inkscape.org/) -->

<svg
   xmlns:dc="http://purl.org/dc/elements/1.1/"
   xmlns:cc="http://creativecommons.org/ns#"
   xmlns:rdf="http://www.w3.org/1999/02/22-rdf-syntax-ns#"
   xmlns:svg="http://www.w3.org/2000/svg"
   xmlns="http://www.w3.org/2000/svg"
   xmlns:xlink="http://www.w3.org/1999/xlink"
   xmlns:sodipodi="http://sodipodi.sourceforge.net/DTD/sodipodi-0.dtd"
   xmlns:inkscape="http://www.inkscape.org/namespaces/inkscape"
   width="1052.3622"
   height="744.09448"
   id="svg2"
   version="1.1"
   inkscape:version="0.48.3.1 r9886"
   sodipodi:docname="title-mockup.svg">
  <defs
     id="defs4">
    <filter
       inkscape:collect="always"
       id="filter3773"
       x="-0.086211188"
       width="1.1724224"
       y="-0.99527836"
       height="2.9905567">
      <feGaussianBlur
         inkscape:collect="always"
         stdDeviation="30.47256"
         id="feGaussianBlur3775" />
    </filter>
    <filter
       inkscape:collect="always"
       id="filter28075"
       x="-0.18696184"
       width="1.3739237"
       y="-0.5394628"
       height="2.0789256">
      <feGaussianBlur
         inkscape:collect="always"
         stdDeviation="21.797589"
         id="feGaussianBlur28077" />
    </filter>
    <linearGradient
       inkscape:collect="always"
       xlink:href="#gradient23"
       id="linearGradient32412"
       gradientUnits="userSpaceOnUse"
       gradientTransform="matrix(0,0.05218506,-0.05279541,0,370.83321,720.26437)"
       spreadMethod="pad"
       x1="-819.20001"
       x2="819.20001" />
    <linearGradient
       gradientUnits="userSpaceOnUse"
       x1="-819.20001"
       x2="819.20001"
       spreadMethod="pad"
       gradientTransform="matrix(0,0.05218506,-0.05279541,0,640,581.25)"
       id="gradient23">
      <stop
         offset="0"
         stop-color="#44A166"
         id="stop31377" />
      <stop
         offset="1"
         stop-color="#3A915A"
         id="stop31379" />
    </linearGradient>
    <linearGradient
       x2="819.20001"
       x1="-819.20001"
       spreadMethod="pad"
       gradientTransform="matrix(0,0.05218506,-0.05279541,0,370.83321,720.26437)"
       gradientUnits="userSpaceOnUse"
       id="linearGradient33799"
       xlink:href="#gradient23"
       inkscape:collect="always" />
  </defs>
  <sodipodi:namedview
     id="base"
     pagecolor="#ffffff"
     bordercolor="#666666"
     borderopacity="1.0"
     inkscape:pageopacity="0.0"
     inkscape:pageshadow="2"
     inkscape:zoom="0.98994949"
     inkscape:cx="513.96623"
     inkscape:cy="388.83044"
     inkscape:document-units="px"
     inkscape:current-layer="layer1"
     showgrid="false"
     borderlayer="true"
     inkscape:showpageshadow="false"
     inkscape:window-width="1920"
     inkscape:window-height="1048"
     inkscape:window-x="0"
     inkscape:window-y="14"
     inkscape:window-maximized="1" />
  <metadata
     id="metadata7">
    <rdf:RDF>
      <cc:Work
         rdf:about="">
        <dc:format>image/svg+xml</dc:format>
        <dc:type
           rdf:resource="http://purl.org/dc/dcmitype/StillImage" />
        <dc:title></dc:title>
      </cc:Work>
    </rdf:RDF>
  </metadata>
  <g
     inkscape:label="Layer 1"
     inkscape:groupmode="layer"
     id="layer1"
     transform="translate(0,-308.2677)">
    <rect
       style="fill:#003575;fill-opacity:0.39215686;stroke:none"
       id="rect2985"
       width="1024"
       height="768"
       x="14"
       y="296.36218"
       inkscape:export-filename="../../alien-forest-explorer.png"
       inkscape:export-xdpi="90"
       inkscape:export-ydpi="90" />
    <text
       xml:space="preserve"
       style="font-size:94.6473465px;font-style:normal;font-variant:normal;font-weight:normal;font-stretch:normal;text-align:center;line-height:125%;letter-spacing:0px;word-spacing:0px;text-anchor:middle;fill:#39929b;fill-opacity:1;stroke:none;font-family:Lobster;-inkscape-font-specification:Lobster"
       x="528.27441"
       y="450.70251"
       id="text3755"
       sodipodi:linespacing="125%"><tspan
         sodipodi:role="line"
         x="528.27441"
         y="450.70251"
         id="tspan28004">Alien Forest Explorer</tspan></text>
    <path
       sodipodi:type="arc"
       style="fill:#000000;fill-opacity:0.26368163;stroke:none;filter:url(#filter28075)"
       id="path28061"
       sodipodi:cx="538.91638"
       sodipodi:cy="662.27216"
       sodipodi:rx="139.90613"
       sodipodi:ry="48.487324"
       d="m 678.82251,662.27216 a 139.90613,48.487324 0 1 1 -279.81226,0 139.90613,48.487324 0 1 1 279.81226,0 z"
       transform="translate(-229.07107,294.02404)" />
    <g
       id="g29252"
       transform="matrix(3.5036226,0,0,3.5036226,-2610.257,-1396.5058)">
      <path
         d="m 911.49949,602.36829 q -2.07987,-3.04575 -1.66699,-4.39558 l 0.24432,-0.44756 0.0321,-0.0383 q 1.41859,-1.61635 3.29007,-2.52744 l 0.37712,0.25056 0.35126,0.35933 q 0.97711,1.01378 1.09562,2.35204 0.14968,1.69045 -0.94169,2.99387 -1.09137,1.30343 -2.74971,1.41478 l -0.0321,0.0383 m 25.4828,20.42399 -3.39594,-1.47398 -2.01401,-1.09943 -0.12656,-0.62768 q -0.14345,-1.62001 0.88372,-2.84676 1.02717,-1.22675 2.64717,-1.3702 1.62001,-0.14345 2.84676,0.88372 1.22675,1.02717 1.3702,2.64718 0.14345,1.62001 -0.88372,2.84676 -0.57778,0.69005 -1.32762,1.04039 m -2.02018,-17.60344 q 0.76672,0.64198 0.85404,1.62807 0.0936,1.05652 -0.54843,1.82324 -0.64198,0.76672 -1.66641,0.82194 -1.01819,0.12566 -1.78491,-0.51633 -0.76672,-0.64198 -0.86027,-1.6985 -0.0873,-0.98609 0.55466,-1.75282 0.64198,-0.76672 1.66018,-0.89237 1.02442,-0.0552 1.79114,0.58677 m -16.10344,-4.28855 q 1.02717,-1.22675 2.64718,-1.3702 1.62,-0.14345 2.84676,0.88372 1.22675,1.02717 1.3702,2.64718 0.14345,1.62001 -0.88372,2.84676 -1.02717,1.22675 -2.64718,1.3702 -1.62001,0.14345 -2.84676,-0.88372 -1.22675,-1.02717 -1.3702,-2.64718 -0.14345,-1.62001 0.88372,-2.84676"
         id="path24951"
         inkscape:connector-curvature="0"
         style="fill:#fca66c;stroke:none" />
      <path
         d="m 927.64966,616.4144 -8.31281,9.92801 -9.35399,-7.83218 8.31281,-9.928 4.49918,4.12844 4.85481,3.70373"
         id="path24959"
         inkscape:connector-curvature="0"
         style="fill:#efebdc;stroke:none" />
      <path
         sodipodi:nodetypes="ccccccc"
         d="m 929.39158,610.45179 -1.00705,5.56235 -6.0814,-0.65046 -8.51195,-1.52298 3.59557,-5.56235 5.92343,1.52297 6.0814,0.65047"
         id="path24957"
         inkscape:connector-curvature="0"
         style="fill:#e1d7bf;stroke:none" />
      <path
         d="m 918.85867,600.90029 q -1.02717,1.22675 -0.88372,2.84676 0.14345,1.62001 1.3702,2.64718 1.22675,1.02717 2.84676,0.88372 1.62001,-0.14345 2.64718,-1.3702 1.02717,-1.22675 0.88372,-2.84676 -0.14345,-1.62001 -1.3702,-2.64718 -1.22676,-1.02717 -2.84676,-0.88372 -1.62001,0.14345 -2.64718,1.3702 m 20.72257,21.9813 q -0.81404,0.42702 -2.59895,-0.0893 0.74984,-0.35034 1.32762,-1.04039 1.02717,-1.22675 0.88372,-2.84676 -0.14345,-1.62001 -1.3702,-2.64718 -1.22675,-1.02717 -2.84676,-0.88372 -1.62,0.14345 -2.64717,1.3702 -1.02717,1.22675 -0.88372,2.84676 l 0.12656,0.62768 -4.59591,-3.00043 -4.80539,-3.76274 -4.5486,-4.06943 -5.19756,-5.78665 -0.92539,-1.23133 0.0321,-0.0383 q 1.65834,-0.11135 2.74971,-1.41478 1.09137,-1.30342 0.94169,-2.99387 -0.11851,-1.33826 -1.09562,-2.35204 2.42157,-0.71134 5.4556,-0.51858 7.04077,0.54784 13.21286,5.71579 6.21044,5.20005 7.94862,12.0029 1.48413,5.938 -1.16321,10.11221 m -4.61913,-17.69275 q -0.76672,-0.64199 -1.79114,-0.58677 -1.0182,0.12565 -1.66018,0.89237 -0.64198,0.76673 -0.55466,1.75282 0.0935,1.05652 0.86027,1.6985 0.76672,0.64199 1.78491,0.51633 1.02443,-0.0552 1.66641,-0.82194 0.64198,-0.76672 0.54843,-1.82324 -0.0873,-0.98609 -0.85404,-1.62807"
         id="path24953"
         inkscape:connector-curvature="0"
         style="fill:#e86a17;stroke:none" />
      <path
         d="m 913.39899,594.95938 q 3.05731,-1.54849 7.30745,-1.25045 7.04077,0.54784 13.21286,5.71579 6.21044,5.20005 7.94862,12.0029 1.65527,6.66821 -1.85692,11.09647 l -0.0321,0.0383 -0.39766,0.31916 q 2.64734,-4.17421 1.16321,-10.11221 -1.73818,-6.80285 -7.94862,-12.0029 -6.17209,-5.16795 -13.21286,-5.71579 -3.03403,-0.19276 -5.4556,0.51858 l -0.35126,-0.35933 -0.37712,-0.25056"
         id="path24955"
         inkscape:connector-curvature="0"
         style="fill:#ef975c;stroke:none" />
    </g>
    <path
       transform="matrix(0.50722182,0,0,0.50722182,347.43785,620.37731)"
       d="m 678.82251,662.27216 a 139.90613,48.487324 0 1 1 -279.81226,0 139.90613,48.487324 0 1 1 279.81226,0 z"
       sodipodi:ry="48.487324"
       sodipodi:rx="139.90613"
       sodipodi:cy="662.27216"
       sodipodi:cx="538.91638"
       id="path29259"
       style="fill:#000000;fill-opacity:0.26368163;stroke:none;filter:url(#filter28075)"
       sodipodi:type="arc" />
    <g
       id="g33828"
       transform="translate(14,10)">
      <path
         style="fill:#f19cb7"
         inkscape:connector-curvature="0"
         id="path18659"
         d="m 360.71359,775.63737 c 26.4703,23.27468 37.5955,44.30898 33.37559,63.10673 -1.66494,7.28891 -4.73012,13.10471 -9.20706,17.45505 -5.62782,3.32221 -10.42315,2.87721 -14.38603,-1.3427 -2.30177,-23.14809 -15.27989,-38.61979 -38.93435,-46.42277 4.85671,-15.59829 14.574,-26.52783 29.15185,-32.79631 z m -121.99355,92.26241 c -6.39507,3.58309 -12.59449,5.18281 -18.60594,4.79535 -6.78253,-2.04474 -9.46409,-6.32603 -8.06001,-12.85152 14.96148,-16.75302 17.58165,-36.3794 7.86437,-58.88682 14.83488,-6.78254 29.47793,-6.78254 43.92535,0 0.25703,35.29373 -8.11373,57.6055 -25.12377,66.94299 z" />
      <path
         style="fill:#f19cb7"
         inkscape:connector-curvature="0"
         id="path18661"
         d="m 211.48249,666.68715 c 0,-22.76446 8.05617,-42.19902 24.16853,-58.31138 16.11236,-16.11235 35.55076,-24.16854 58.31138,-24.16854 22.76063,0 42.19903,8.05619 58.30755,24.16854 16.11235,16.11236 24.17237,35.55077 24.17237,58.31138 v 116.62277 c 0,13.94102 -8.06002,25.82964 -24.17237,35.67736 -16.10852,9.71728 -35.55077,14.58168 -58.30755,14.58168 -22.76445,0 -42.19902,-4.8644 -58.31138,-14.58168 -16.11236,-9.84389 -24.16853,-21.73634 -24.16853,-35.67736 V 666.68715 z" />
      <path
         style="fill:#a55b72"
         inkscape:connector-curvature="0"
         id="path18663"
         d="m 313.14378,722.31314 c -2.6854,0 -4.991,-0.95907 -6.90914,-2.8772 -1.79153,-1.79154 -2.68155,-4.03193 -2.68155,-6.71349 0,-2.68538 0.89002,-4.99099 2.68155,-6.90913 1.91814,-1.79154 4.22374,-2.68155 6.90914,-2.68155 2.68156,0 4.92194,0.89001 6.71348,2.68155 1.91814,1.91814 2.87721,4.22375 2.87721,6.90913 0,2.68156 -0.95907,4.92195 -2.87721,6.71349 -1.7877,1.91813 -4.02809,2.8772 -6.71348,2.8772 z" />
      <path
         style="fill:#a55b72"
         inkscape:connector-curvature="0"
         id="path18665"
         d="m 327.72162,639.64141 c 3.96288,3.96288 5.94623,8.57025 5.94623,13.81443 0,5.36695 -1.98335,9.84388 -5.94623,13.42696 -3.83627,3.96288 -8.31321,5.94623 -13.42696,5.94623 -5.62782,0 -10.42316,-1.98335 -14.38603,-5.94623 -3.70968,-3.58308 -5.5626,-8.06001 -5.5626,-13.42696 0,-5.24035 1.85292,-9.84772 5.5626,-13.81443 3.96287,-3.83627 8.75821,-5.7544 14.38603,-5.7544 5.11375,0 9.59069,1.91813 13.42696,5.7544 z" />
      <path
         style="fill:#ffffff"
         inkscape:connector-curvature="0"
         id="path18667"
         d="m 333.66785,653.45201 c 0,-5.24035 -1.98335,-9.84772 -5.94623,-13.81443 -3.83627,-3.83628 -8.31321,-5.75442 -13.42696,-5.75442 -5.62782,0 -10.42316,1.91814 -14.38603,5.75442 -3.70968,3.96287 -5.5626,8.57023 -5.5626,13.81443 0,5.36694 1.85292,9.84387 5.5626,13.42696 3.96287,3.96287 8.75821,5.94623 14.38603,5.94623 5.11375,0 9.59069,-1.98336 13.42696,-5.94623 3.96288,-3.57925 5.94623,-8.05618 5.94623,-13.42696 z m 0.95907,-20.52407 c 6.00761,6.00759 9.01525,12.98195 9.01525,20.9077 l -0.38363,4.98715 c -1.15088,5.75441 -4.02809,10.80295 -8.63162,15.15328 -5.75442,5.88485 -12.46789,8.82344 -20.14045,8.82344 -8.4398,0 -15.59829,-2.93859 -21.48314,-8.82344 -4.35033,-4.35033 -6.90913,-9.39887 -7.67254,-15.15328 l -0.57544,-4.98715 c 0,-7.92575 2.7506,-14.90011 8.24798,-20.9077 5.88102,-5.75442 13.0395,-8.63163 21.48314,-8.63163 7.67256,0 14.38603,2.87721 20.14045,8.63163 z" />
      <path
         style="fill:#f19cb7"
         inkscape:connector-curvature="0"
         id="path18669"
         d="m 414.22963,710.80431 c 2.55879,-0.64065 4.98716,-0.32224 7.28892,0.95907 2.30176,1.40408 3.83627,3.32222 4.5997,5.75442 0.64065,2.42837 0.32224,4.85672 -0.95907,7.28508 -15.3451,28.13141 -39.12618,39.76683 -71.35472,34.91395 l -1.15088,-0.19565 17.64686,-30.69021 c 15.21851,9.46409 27.93959,5.04854 38.17094,-13.23131 1.40791,-2.42836 3.32605,-4.02809 5.75825,-4.79535 z m -224.4221,79.02727 c -1.79153,1.91814 -4.02809,2.87721 -6.71348,2.87721 -2.6854,0 -4.98715,-0.89385 -6.90529,-2.68539 -1.79155,-1.78771 -2.75062,-4.0281 -2.87721,-6.71348 -0.76725,-32.09428 13.99857,-54.09148 44.30897,-65.98394 l 1.15089,-0.38362 v 35.29373 c -17.90389,-0.51407 -26.66211,9.71728 -26.27848,30.6902 0,2.68539 -0.89386,4.98715 -2.6854,6.90529 z" />
      <path
         style="opacity:0.2;fill:#ffffff"
         inkscape:connector-curvature="0"
         id="path18671"
         d="m 293.9624,533.95203 c 29.1557,0 54.15287,10.35794 74.99918,31.07767 20.58545,20.58546 30.88202,45.45986 30.88202,74.61171 0,29.28613 -10.29657,54.28329 -30.88202,75.00302 -20.84631,20.58546 -45.84348,30.88201 -74.99918,30.88201 -29.15952,0 -54.0301,-10.29655 -74.61555,-30.88201 -20.84631,-20.71588 -31.26564,-45.71689 -31.26564,-75.00302 0,-29.15569 10.42316,-54.02625 31.26564,-74.61171 20.58545,-20.71973 45.45986,-31.07767 74.61555,-31.07767 z m 69.43659,40.47271 c -7.0319,-7.15849 -15.53693,-10.74158 -25.51124,-10.74158 -9.97432,0 -18.4755,3.58309 -25.50739,10.74158 -7.16232,7.03572 -10.74157,15.54074 -10.74157,25.51122 0,9.97049 3.57925,18.47551 10.74157,25.51123 7.03189,7.0319 15.53692,10.54977 25.50739,10.54977 9.97816,0 18.47934,-3.51787 25.51124,-10.54977 7.03189,-7.03572 10.54975,-15.54074 10.54975,-25.51123 0,-9.97048 -3.51786,-18.4755 -10.54975,-25.51122 z"
         enable-background="new    " />
      <path
         style="fill:#ffffff"
         inkscape:connector-curvature="0"
         id="path18673"
         d="M 368.96158,565.02586 C 348.11527,544.30997 323.1181,533.9482 293.9624,533.9482 c -29.15952,0 -54.0301,10.35794 -74.61555,31.07766 -20.84631,20.58545 -31.26564,45.45986 -31.26564,74.61172 0,29.28612 10.42316,54.28329 31.26564,75.00301 20.58545,20.58545 45.45986,30.88202 74.61555,30.88202 29.1557,0 54.15287,-10.29657 74.99918,-30.88202 20.58545,-20.71589 30.88202,-45.71689 30.88202,-75.00301 0,-29.15186 -10.29657,-54.02242 -30.88202,-74.61172 z m -200.06175,74.61555 c 0,-34.52647 12.27608,-63.93535 36.83208,-88.23432 24.29514,-24.42173 53.70785,-36.63643 88.23433,-36.63643 34.52648,0 64.06196,12.2147 88.61796,36.63643 24.29512,24.29897 36.44461,53.70785 36.44461,88.23432 0,34.65308 -12.14949,64.19623 -36.44461,88.6218 -24.55217,24.29512 -54.09148,36.44461 -88.61796,36.44461 -34.52648,0 -63.93919,-12.14949 -88.23433,-36.44461 -24.556,-24.42557 -36.83208,-53.96872 -36.83208,-88.6218 z" />
      <path
         style="opacity:0.30199998;fill:#ffffff"
         inkscape:connector-curvature="0"
         id="path18675"
         d="m 337.88775,563.68316 c 9.97816,0 18.47934,3.58309 25.51124,10.74158 7.03189,7.03572 10.54975,15.54074 10.54975,25.51122 0,9.97049 -3.51786,18.47551 -10.54975,25.51123 -7.0319,7.0319 -15.53693,10.54977 -25.51124,10.54977 -9.97432,0 -18.4755,-3.51787 -25.50739,-10.54977 -7.16232,-7.03572 -10.74157,-15.54074 -10.74157,-25.51123 0,-9.97048 3.57925,-18.4755 10.74157,-25.51122 7.02805,-7.16233 15.53307,-10.74158 25.50739,-10.74158 z"
         enable-background="new    " />
      <path
         style="opacity:0.50199998;fill:#f3afc5"
         inkscape:connector-curvature="0"
         id="path18725"
         d="m 267.10848,806.51938 c -3.07285,-0.76341 -5.37079,-2.48974 -6.90913,-5.17897 -1.53068,-2.68539 -1.85293,-5.50122 -0.95907,-8.43981 0.64065,-2.94242 2.3056,-5.17897 4.99099,-6.71348 2.68155,-1.53067 5.55876,-1.91813 8.63161,-1.15087 2.80817,0.76724 4.98717,2.49357 6.51784,5.17896 1.53451,2.68539 1.98335,5.50122 1.34653,8.43981 -0.89385,2.94242 -2.68539,5.18281 -5.37078,6.71347 -2.6854,1.53452 -5.436,1.91814 -8.24799,1.15089 z m 69.62839,-14.96147 c 2.17133,3.70584 2.68539,7.60733 1.53451,11.70064 -1.02428,3.96287 -3.32605,7.03573 -6.9053,9.20706 -3.70967,2.04473 -7.60733,2.55496 -11.70447,1.53068 -3.96287,-1.15089 -7.0319,-3.57926 -9.20323,-7.2851 -2.04473,-3.58307 -2.55879,-7.35414 -1.53451,-11.31701 1.15088,-4.0933 3.58308,-7.15849 7.28893,-9.20706 3.57924,-2.17133 7.3503,-2.68538 11.317,-1.53067 4.09332,1.01662 7.16234,3.32222 9.20707,6.90146 z m -48.52888,14.19421 6.13804,-0.76725 c 2.04474,0.51406 3.58308,1.72632 4.60353,3.64446 1.15088,1.91814 1.4693,3.89766 0.95907,5.94623 -0.64065,2.17133 -1.91814,3.77105 -3.83628,4.79535 l -5.94622,0.76725 c -2.04857,-0.51406 -3.64446,-1.72632 -4.79534,-3.64446 -1.02813,-1.91814 -1.28132,-3.90149 -0.76726,-5.94623 0.63682,-2.04473 1.85676,-3.64446 3.64446,-4.79535 z"
         enable-background="new    " />
    </g>
    <path
       sodipodi:type="arc"
       style="fill:#000000;fill-opacity:0.26368163;stroke:none;filter:url(#filter28075)"
       id="path33826"
       sodipodi:cx="538.91638"
       sodipodi:cy="662.27216"
       sodipodi:rx="139.90613"
       sodipodi:ry="48.487324"
       d="m 678.82251,662.27216 a 139.90613,48.487324 0 1 1 -279.81226,0 139.90613,48.487324 0 1 1 279.81226,0 z"
       transform="matrix(0.50722182,0,0,0.50722182,587.43785,620.37731)" />
    <g
       transform="matrix(3.9327009,0,0,3.9327009,-624.75464,-2070.0289)"
       id="g33593"
       inkscape:export-filename="../public/img/sprites/static-tree-8.png"
       inkscape:export-xdpi="197.26019"
       inkscape:export-ydpi="197.26019">
      <path
         d="m 374.83321,757.61437 0,-2 1,0.2 2.25,0.2 0.25,0 0.25,0 3.25,-0.4 0,2 -3.25,0.4 -0.25,0 -0.25,0 -2.25,-0.2 -1,-0.2"
         id="path32031"
         inkscape:connector-curvature="0"
         style="fill:#9f7348;stroke:none" />
      <path
         d="m 374.83321,757.61437 1,0.2 2.25,0.2 0.25,0 0.25,0 3.25,-0.4 0,9.45 q -0.05,1.15 -1,2.05 -0.9,0.8 -2.25,0.9 l -0.25,0 q -1.4,0 -2.45,-0.9 -1,-0.9 -1.05,-2.05 l 0,-9.45"
         id="path32033"
         inkscape:connector-curvature="0"
         style="fill:#b08052;stroke:none" />
      <path
         d="m 378.13321,677.01437 3.2,0 8.85,52.95 q 2.55,15.05 2.55,18.1 0,6.4 -4.45,10.95 -4.25,4.3 -10.15,4.5 l 0,-86.5"
         id="path32035"
         inkscape:connector-curvature="0"
         style="fill:#44a166;stroke:none" />
      <path
         d="m 378.13321,677.01437 0,86.5 q -5.9,-0.2 -10.15,-4.5 -4.45,-4.55 -4.45,-10.95 0,-3.05 2.55,-18.1 l 8.85,-52.95 3.2,0"
         id="path32037"
         style="fill:url(#linearGradient33799);stroke:none"
         inkscape:connector-curvature="0" />
    </g>
  </g>
</svg>
